<mxfile host="app.diagrams.net" modified="2023-09-25T06:38:40.876Z" agent="Mozilla/5.0 (Macintosh; Intel Mac OS X 10_15_7) AppleWebKit/537.36 (KHTML, like Gecko) Chrome/117.0.0.0 Safari/537.36" etag="FcLs7LPLNnmLKcwX4gRz" version="21.8.1" type="github">
  <diagram name="Сторінка-1" id="aSQwm3R4IvK-AfP-_QHl">
    <mxGraphModel dx="1366" dy="729" grid="1" gridSize="10" guides="1" tooltips="1" connect="0" arrows="1" fold="1" page="1" pageScale="1" pageWidth="1654" pageHeight="1169" background="#ffffff" math="0" shadow="0">
      <root>
        <mxCell id="0" />
        <mxCell id="1" parent="0" />
        <mxCell id="BrXt5fqMSFw7gzk6Yu6o-3" style="edgeStyle=orthogonalEdgeStyle;rounded=1;orthogonalLoop=1;jettySize=auto;html=1;labelBackgroundColor=none;strokeColor=#0B4D6A;fontColor=default;" edge="1" parent="1" source="BrXt5fqMSFw7gzk6Yu6o-1">
          <mxGeometry relative="1" as="geometry">
            <mxPoint x="330" y="470" as="targetPoint" />
          </mxGeometry>
        </mxCell>
        <mxCell id="BrXt5fqMSFw7gzk6Yu6o-1" value="" style="shape=ext;double=1;rounded=1;whiteSpace=wrap;html=1;labelBackgroundColor=none;fillColor=#09555B;strokeColor=#BAC8D3;fontColor=#EEEEEE;" vertex="1" parent="1">
          <mxGeometry x="50" y="270" width="220" height="400" as="geometry" />
        </mxCell>
        <mxCell id="BrXt5fqMSFw7gzk6Yu6o-208" style="edgeStyle=orthogonalEdgeStyle;rounded=1;orthogonalLoop=1;jettySize=auto;html=1;labelBackgroundColor=none;strokeColor=#0B4D6A;fontColor=default;" edge="1" parent="1" source="BrXt5fqMSFw7gzk6Yu6o-4" target="BrXt5fqMSFw7gzk6Yu6o-39">
          <mxGeometry relative="1" as="geometry" />
        </mxCell>
        <mxCell id="BrXt5fqMSFw7gzk6Yu6o-4" value="" style="shape=ext;double=1;rounded=1;whiteSpace=wrap;html=1;labelBackgroundColor=none;fillColor=#09555B;strokeColor=#BAC8D3;fontColor=#EEEEEE;" vertex="1" parent="1">
          <mxGeometry x="330" y="270" width="220" height="400" as="geometry" />
        </mxCell>
        <mxCell id="BrXt5fqMSFw7gzk6Yu6o-5" value="Splash Screen" style="text;html=1;strokeColor=none;fillColor=none;align=center;verticalAlign=middle;whiteSpace=wrap;rounded=1;labelBackgroundColor=none;fontColor=#000000;" vertex="1" parent="1">
          <mxGeometry x="70" y="230" width="190" height="30" as="geometry" />
        </mxCell>
        <mxCell id="BrXt5fqMSFw7gzk6Yu6o-6" value="Auth Screen" style="text;html=1;strokeColor=none;fillColor=none;align=center;verticalAlign=middle;whiteSpace=wrap;rounded=1;labelBackgroundColor=none;fontColor=#000000;" vertex="1" parent="1">
          <mxGeometry x="350" y="230" width="190" height="30" as="geometry" />
        </mxCell>
        <mxCell id="BrXt5fqMSFw7gzk6Yu6o-7" value="" style="shape=image;verticalLabelPosition=bottom;verticalAlign=top;imageAspect=0;image=data:image/png,iVBORw0KGgoAAAANSUhEUgAABDgAAAQ4CAIAAABjcvvYAAAACXBIWXMAAAsSAAALEgHS3X78AAAgAElEQVR4nOzdW5Bc933Y+e659hCQejCQNAQoYGYBFxARFoCIl5clCWSroN0XinCVKe2DXEBStsU4XoFy8uLdyqK8m6eNI4Sp3WRfQkjZqrhStStS2n3yRSRLSjbJShaZCmNLMSFCskCBJghAJDC4DNBbjQMMh3Pp6cs5p//n//98ypXIAI0ZnKbI88X/8qvX/8GrNYASXLlSW7zlQQMAG/r2l/aPeEoAAEBohAoAABAcoQIAAARHqAAAAMERKgAAQHCECgAAEByhAgAABEeoAAAAwREqAABAcIQKAAAQHKECAAAER6gAAADBESoAAEBwhAoAABAcoQIAAARHqAAAAMERKgAAQHCECgAAEByhAgAABEeoAAAAwREqAABAcIQKAAAQHKECAAAER6gAAADBESoAAEBwhAoAABAcoQIAAARHqAAAAMERKgAAQHCECgAAEByhAgAABEeoAAAAwREqAABAcIQKAAAQHKECAAAER6gAAADBESoAAEBwhAoAABAcoQIAAARHqAAAAMERKgAAQHCECgAAEByhAgAABEeoAAAAwREqAABAcIQKAAAQHKECAAAER6gAAADBESoAAEBwhAoAABAcoQIAAARnzEcCAECi6vXa2GhtZLQ+OlIbufM/7Rfk0Vp9oz/NX1ystVp3/0Ot1rp5s/2/Lt5a9dfRP6ECAEAyRkZqY6P18fHa6GhXQbKesXtv0ePj7d6Zmrr7vy4u1m7dai3eqt1arN1cXOf/mO6e8aofAQCAiIyM1MbH6+NjtfGx2shosb+vsbHa2Fh98t7/evNmbXGxvd4iWnonVAAAiNHYaH1yMiuHof3uxsfbjTQ1VWvdrt242bq5WLtx4+6eMTYiVAAAiMjISH2qUZsYL3zxpCf1kdrkZDucaptqN260rl+v3bjp77rOhAoAAFFol8BEdmgkaBMT9YmJ9hrL9RuthWu127f97bcmoQIAQJWNjNQbk7XGZP8n44eiPlJrNOqNRu3mzda1axZYVhMqAABU08hI/b6p2uRktT++9kH/8drtW62r12rXr6/66XQJFQAAqiaORFluZLS+eVPtvoZcWSJUAACojvgSZbmlXLly1WYwoQIAQBXU6+3rvCp3FqUPI6P1j3ykfXbl6tWUp90LFQAAgjcxXt90X1g3DhdtfLzebNauXWtdXUhz9IpQAQAgYPV6ezfUxESin1GjUZ+caL1/JcGdYEIFAIBQTYy3KyX6vV6d1UfaO8Fu3GjnSkpLK0IFAIDwJL6QstrERH3LWOu992s3F1f9XJzSzlMAAAI0Nlqf/qhKWak+Uv/oR9tnddJgRQUAgJA0Gum8i/ej0aiPjbV+8V7028CsqAAAEIY7271UysbGxupbmrWxyO9AEyoAAASgXq9/9CPRTnLMXX2kfXlx1I/L1i8AAIZtbLRdKYnf7tW79n0DY6PtMfYx8ncDAABDpVIG0Wi0cyVGVlQAABieyclY37PLMzlZr9Xa6ypxHa9XrgAADIlKycvk5J1VqXocv5uMUAEAYBjuVMrEaFTv1sPSfoxjY5G1ilABAKB09yrlU1sn55rjnv8gtk6Nfvrjja1To+1W+cjm6v5GVhAqAACUa2w02/F163br5u3Wx6bGtErftk6NzjeXjfAfH49mN51QAQCgRNkdX3fcatV+eOH6wuJtrdKfpUp58/KNCwu37v4asZz8ESoAAJQlm+q47CZirdK3tSslMzlZazSq9dtZTagAAFCKVZWS0Sp96FQpd9Q33VebqPbDFCoAAJSh/eo8tvYQP63Skw0rJZPNrV/1w5UhVAAAKF6j0d6PtD6t0qUuK6WtPtK+BKyyFxYLFQAACjY+1l5O2YhW2VAPlZIZGa3uwXqhAgBAker17od7aJUOeq6UzMRERQ/WCxUAAArU/hP9VQfoO9Aqa+qzUu64czqoeodVhAoAAIVpNNp/ot8jrbLCIJWSqW+q3gYwoQIAQDFGRur39bnpSKssGbxS2sbG6vdNrfrRoAkVAAAK0eumrxW0Sm6VkpmaqtYGMKECAEABJsZr44PWReKtkmel3FGtDWBCBQCAvNXred2Km2yr5F4ptTsbwCp0A5hQAQAgZ/WpxiCbvlZIsFUKqZQ72qeGKjICUqgAAJCrkZH2cYhcJdUqxVVKLRtXX5FT9UIFAIA8FfQenEirFFspmUajHZPBEyoAAORnfKw2OVnQ84y+VcqolDsqsagiVAAAyE09701fK0TcKqVVStvkZPiLKkIFAICcjI8NfiXxhqJslVIr5Y7wF1WECgAA+aiXdfVtZK1SfqXUqrCoIlQAAMjDyEhtYqK0JxlNqwynUu4IfFFFqAAAkIPy33ojaJUhVkotW1QJeKaKUAEAYGD1em1iCKlQ6VYZcqXc0R7NGSqhAgDAwNp/Nj+cF8uKtkoIldI2Wd5uvV4JFQAABlWfKmp2Sjcq1yqhVEq7BkaHshTWDaECAMBgxkbb77tDVaFWCahS7qiXeAVCT4QKAAADqRc2ir4nlWiV0CqlFvCReqECAMBggjnnEHirhFgpmSAXVYQKAAADmBgf1jH6NQXbKuFWSnv3V4gLUEIFAID+1ceDe8cNsFVCrpRatqIS3u4voQIAwACC/MP4oFol9ErJhLf7S6gAANCvAO77Wk8grVKNSmmvjI2t+rEhEyoAAPRrLOiLgIfeKlWplFqQK2NCBQCAPgX4x/ArDLFVqlQp7c9ypL0+FhKhAgBAv4IPlWG1SsUqJRPY+phQAQCgL2OjQV1M3EHJrVLJSglvfUyoAADQl7APqKxQWqtUtFJqWXmGRKgAANCPemDvtRsqoVUqXCntMhgNapqKUAEAoC+jFQuVolul2pWSCSk+hQoAAH0Zq8BJ+tUKapUYKqV9TCWg7XxCBQCA3lVt39dyubdKHJXSNhJQHQgVAAB6F9IbbR9ybJV4KkWoAABQdfVq7vtaLpdWiapSnFEBAKDyQroeqm8DtkpslZLNpw+GUAEAoHcVvPJrTX23SoSVkglm7KNQAQAgaX20SrSVEhKhAgBA76p869dqPbVK5JUSzKY+oQIAQO9COsyQiy5bJfq1lHCuSRAqAABQ66ZV7Pgqk1ABAIC7OrSKSimZUAEAoEdxHVBZYc1WUSnlq/ykHgAAyhbFEJUOslbZu3XyY1Ptt+X3b9xOqFIcpgcAgGAtravs/Mj4gU80ElpLCWZCjlABAIA13GrV3rl6677xkfvGR67fum3HV8mECgAArGHr1OiOj46/e+3W+SuLk6Mja94DRnGcUQEAgJWWTs+fuXTj0rVbS+dVzl6+ueqvjcviYiC/HSsqAAD06NbtuJ/Yiju+1rwHjKIJFQAAenQ75lBZ8yZirVI+oQIAAHetWSkZrVIyoQIAALXOlZLRKmUSKgAA9O72Gu/xldbl7PnoW6V1M5TbAoQKAAC9i+s8fZeVkrGuUg6hAgBA0nqqlEzMrRJMggoVAAB6F8y0jQH1USmZaFslmCvdhAoAAD1r3W5F8ND6rpRMhK0S0tEjoQIAQO9uVX5FZcBKycTWKiEdPRIqAAD0ruKH6XOplExUrXLLigoAAJV2+3atVdVWybFSMtG0SmtRqAAAUHUhvdR2L/dKyUTSKs6oAABQeSFtE+pSQZWSiaFVbgZ09EioAADQj3BGmHep0ErJVLtVArtyemzVjwBAzw7vbi79n7z8xmUPEJJQqa1fJVRKJmuVvVsnPzbVftM+e7k6OSdUABi66amxg9s3Zd/F/JbG3JZG9p+np0YPbt+8/Lubnho7sG1T7t/va29dubTwoX8jvnru/Uv3Xh3OXrz25sVr93585V8JhOL27faRhpHR8D+Q0iolU9FWCW2JTKgARChb35hujB24Ux3zM5Pzd1Lk4PZNzUYQ/+RfHT+HdjVX/VUfcvna4qvnrrTfMy5ee/Pd6+3aOff+pWuL1nBgmG4u1iZDD5WSKyVTyVYJ6YCKUAGosIPbN91ZGNncbIxlKVLQ6kcgmo2xLGYO1dZOmmyVJsuYO1Xz/qWFu20DFKR1c7E+ORny0x1KpWQq1iqLi7VWa9WPDpNQAQhdtk0r26B1L05CWRgJShZpqzMmW4rJoiXbVGY7GeTmxo1aLdw/HxlipWSq1CqBHVARKgDByZrkwPbN2SLJhhui2NDSUsxT+7Yu/2tfOXM5W3557dz7Wb14ltCzVqv9gjsW4ivl0CslU5VWaV2/vurHhkyoAAzTUpa0/8NMI+KNWwE6tKu5YvnltbeuvPluu1ikC3Svdf1GPbxQCaRSMhVoldbtAO9wEyoApTq8u3lw++YDd/rEakloDmzbdGDbpuULL9mqy2vnrrx67n1H9mFtN27UNt235s8MS1CVkgm9VW6EuM4jVACKdXh389Cu6YPbNx3cvnluS9BHTlnt7qrLQ3d/4uzF66+ee//Vc1deOXNJt8Bdt28HtfsrwErJhNwqrfZZo+AIFYCcHdy+6fDu6QN3ysRWrsjMbZmc2zJ5Z8llZ7ZV7NVz77927srLb1yyT4yUhbP7K9hKyQTaKrdvWVEBiNP01NjhXc0D2zffWTyxmysh2VaxpfWWV85cfvmNy6+de//lM5fdKkZarl8PYfdX4JWSCbFVgqwUoQLQp/ktjXaWZAdOLJtwR3uf2L1SzRZbXnmjnS5LU/YhWq1W+6TKxMQQf3+VqJRMaK3SWgj0n1FCBaBbS3FyeNe00yZ0li22HHtoNjvZ8vKZS6KFuLWuX68PL1QqVCmZgFrl5s32KaMgCRWATqanxo7u2ypOGMTclsljD82uiJYXX79gexhRuXGzfdRhZLT831PlKiUTSKu0rod4jD5Tr/+DV1f9IEABrlwJ8I729dyNk93TtnVRnNfeap/Cz6LFYyYGjUa99JMqFa2UJaP12t6tk1NjI+8sLA6hVW7fal0M9ALDb39pvxUVgLuy27oO7WqumF8OBcm2h5147IFarfbN1y/cOYvv9jCq7Pr12n2NWn2ktN9C1Stl6OsqrYXgptEvJ1SA1GWLJ0f3fczOLoboqX1bs0I+e/H6i6+/Y5mFSmq1ateu16amyvneI6iUzNBapXW73ZYBs/ULKEtIW7+yY/FLr4YQpm++fuGbr19wBJ8qqdfrW5olLKpEUylLhrAHbGGhdXVh1Y+GwtYvIC3zWxpHf3nrsYdnnTyhEpZa+rW3rnz9e+df/I8XFAuhK2VRJb5KGcK6Sut2sLcSL7GiApRleCsqB7dvOvbwrM1dRCDbGPb17513lIVwFbyoEmWlLClvXSXs5ZRsRUWoAGUpPVT0CRFTLISsft9UQYsqcVdKpoxWuX2rdekX7eWvgAkVoERlhYo+ISmKhRDV6/Xpj+Y+UyWFSskU3Sqt968EfoxeqADlKjhU5rc0Tjy+XZ+QrKxYnvvOOedYCMLEeP0jH8nxG0mnUjIFtsrNm61fvLfqR4MjVIASFRMqzsfDCk7eE4j6Rz9SGx/P5XtJrVIyBbVK6/LlSsxfFipAiXINlempsaN3LkRyvzCsJ7vd+MXXL1xaWFznL4EijYzUt0wP/uunWSmZ/Fvl2rXWlaurfjREQgUoUU6hcnh3884RlK3NhgvWYWOXry2++PqFr3/v/MtvXPa4KNngp+pTrpRMnq1ShTP0S8xRASpjfkvj2MOzxx+edQQFetJsjB17aPbYQ7NnL17/2vfOf/17520JozStqwv18fHaWJ8vnCol3/kq7TP0FamUjBUVoCz9rqgc3dc+gmKLF+Tlm3cWWF58/YInShnGRuvNZh9fR6Usl8O6SnU2fWWsqADhym7xOv7wrC1ekK/scNfla4tf+955t4RRuMVbrStX65vu6+nrqJQVBl1XuX0r8PGOa7KiApSl6xWVo/u2nnj8gUO7+vkTOKBXr5y5/Nx3fmaBhUL1dAOYSllP3+sqVbnpazkrKkBAnEKBoTi0q3loV9MJFgrVeu/9LkdAqpQO+ltXae/4qlqlZKyoAGVZf0Ulu8jr2EOzq34GKNvXv3/eFWEUoovDKiqlG72tq1y/3j5DX0FWVIAhO/7w7InHHzCrEcKRXRH22ltXnvvOz772vfM+GXKzeKv1/pX65nX/ga9SutTDusriYrUO0K9gRQUoy7IVlWyX17OPb3dQHkJ2+driP/7OOfvByFE7VCbX2N+rUnq18bpK63br4uVq3Ue8nIGPQInuhMrB7ZtOPP6AXV5QLV///vnnvvOzV89VcgMJoal/ZHNtYmL5N6VS+tOpVVq3W794b70d15UgVIDyHJ4dO/lffdJdXlBdr5y5/Ht/dNbxFQZVr7cvAbs3BVKlDGK9Vmm9917txlrLLNUhVIAyHN8/c/KJ2bnmhKcNETh78frv/dFZx1cYyL1WuW985FNbJ1XKIJZa5e2riz/9xc27E+ivX6/u7ygjVIACTTdGj+5pShSIUpYrL75+4dLCok+Yftxrlbnm+Ps3bquUQYzWa7u3TPzle4tXb96Oo1KEClCU6cboiUc//uyjH2tObnxlPlBd2Wn75777M7lCPz68B4zBRVMpQgXIn0SBBMkV+qdV8hNTpQgVIE/zzYljB2YkCiTLXcb0SavkIbJKESpAPuabEyefmD22f8bzBLK7jH/vD38iV+iBVhlE6865lIrf8bWayfTAQCQKsFo2216u0INWq3X5F+vNgqST6s9L6UCoAP1wFgXo7NhDs0f3bXV2he613r9Sv327NjXlmXVrcbH13vu127er8d32ztYvoDcSBeiJo/b0ZmK8vbRSH/HYNnD9euvK1Vqr1fmvqi5nVIAeSBSgb3KFHoyN1jdtcmSlg3aiXIt8X6VQAbp1fP/Mqc9ulyjAIC5fW/zKt86Yas/G6vX6fVO1RsOjWun2rfZ2r0gPpSz37S/tt6wGbOD4/pkf//annn9yh0oBBtRsjD3/+T0//t1Hjz8861nSSavVunK19d57tVa0BzD6cf1669IvUqiUjFAB1nV4bvNLv7b7+Sd3zDUn1vtrAHo1t2Xy+c/veemZ/Yd3Nz08Orlxs3Xxcu3GjQ5/SSpat1vvvde+hjjeQymr2fwHrGG+OXH6czsO7dy8+qcAcnFoV/PbX9r/ypnLf/Nf/cgtxqyr1WrvdEr8hH3s5+bXY0UF+JDpxujpJ3ec+e1PqRSgBId2Nc/87iOnv7BnesofnrK+bGkl9uPja1hcbP3iF6ktpCzxDwXgAyefuN+lXkD5loau/N4fnfX4WdudUyu1hWvtpZXx8TX/kqi0breuLNSuX0/5bwe3fgFtR/c2Tx3Z7iwKMFxnL17/yrfeePH1Cz4HOhkfq09NRZsrrdu1a9dbC9fSXEVZ8u0v7beiAqlzHAUIx9yWyW8ce9DBFTZwc7F1870Ic0WifJgzKpCu6cboqSMPOI4ChCY7uHLqc7scXKGTm4utX7zX+sUvajdvdvirqqF1u7aw0Lp4uXV1QaUs8d9/SJQBjkDgTjz2wPGHZw2IZAPZ6srYaL3RqE2MV+9msMXF1rXriZ9FWY9QgeQcnJ069dntVlGA8GUDIo+1c+WNV89d8YmxrsVb7aux6vXaxES9MVkbC/4Vt3W7fZXZtWvpTG/sg1CBhEw3Rk8+fv+JRz/mQwcq5NCu5p8++5nnvvuz3/ujn1xaWPTRsa5Wqz1y5Pr12shIferOAstIYBsHsj65caN2o/rb1YonVCAVR/c2Tz+5w14voKKynWB/81/9yJ1gbOz27fZdxldqtZGR9hrLxPiQz9zfvtXeoqZPeiRUIH7u9QLi0GyMuROM3ty+Xbt2rb3Dql5v3xI2Pl4bHS0pWrI4WbxVu3Gj/W3QO6ECkTv5xP0nH5/1KQPRyO4E+70/+onpkPSg1bqz5+regsbYaG10rN7+f0droyP57BC7ebP9VW7dat282T554vKugQkViNbhuc2njmw/MDvlIwbic/LIzqO/vPUr33rj5Tcu+3jp2eKt9vn75VdtjY22V11GRuuj9+4NW+9E/u3bSyskrexmZFlSjHU+AKDKHJoHUnBg26Zvf2m/Q/bk4+7tW4uCIxwGPkJsDs9t/sGv71EpQCJOPPbAD579zOHdTR84REaoQDymG6MvPD3/7S/unmtO+FiBdMxtmfz2l/a/cOxBk+whJkIFInF0b/PHv/2pp/b4M0UgUU/t2/rj333k6L6t/gaAOAgVqLxsIeUbvzpvRgqQuOz+YksrEAehAtVmIQVgBUsrEAehAlU13Rg9/eQOCykAq2VLK6e/sMfSClSXUIFKyq72OrZ/xscHsJ5jD826EAyqS6hAxUw3Rk8decDVXgDdyC4EO/W5XZZWoHKEClTJwdmpl76424wUgJ6ceOyBl57Zf3D7Jo8NKkSoQGU8++jH//TX9xyYnfKRAfTqwLZNf/rsZ559/AFPDqpCqEAFTDdGX/q13V89st2HBTCIrz6566Vn9tsGBpUgVCB02QXEh3Zu9kkBDO7QrqbLi6EShAoE7dSRB1xADJCv7PLiU5/b5blCyIQKBOrg7NQPfn2Pc/MABTnx2AM/+MpnnLCHYAkVCNHx/TMv/dpu5+YBCnVg26aXntl//OFZjxkCJFQgLNm8+eef3GG7F0AJmo2x5z+/xwx7CJBQgYBkY1LMmwco2bGHZg1agdAIFQiF7V4AQ2QbGIRGqEAQbPcCGLqlbWA+CgiBUIEhm29O/ODX99juBRCIYw/N/uArn5nf0vCBwHAJFRimw3Obf/Abe2z3AgjKgW2bfvCVv354d9PHAkMkVGBoTj5x/7e/uNt2L4AANRtj3/7S/pNH5nw4MCxCBYZgujH6wtPzJx93ZBMgaCeP7Hzh2INuLoahECpQtuwO4qf22FEAUAFP7dvq5mIYCqECpTq6t+kOYoBqyW4uPrpvq88NyiRUoDzPPvrxb/zqvEMpAJXTbIx949iDzz7+gI8OSiNUoAzTjdHTT+746pHtnjZAdX31yV2nv7DHkRUoh1CBwk03Rl/64m6TUgAicOyh2Zee2a9VoARCBYp1cHbqx7/9KYdSAKJxYNumH//uI47XQ9GEChTo+P6Zl37NpBSA2DQbYy89s//4w26ZhwIJFSjKs49+/Pknd6gUgCg1G2PPf36P4/VQHKEChXB0HiAF2fF6HzUUQahAztpH53/N0XmAVDheDwURKpCn+ebES1/cfWjnZk8VIB2HdjVfemb//JaGzxxyJFQgNwdnp37wG3tc8AWQoAPbNv3gK3/dVWCQI6EC+Ti6t+mCL4CUZVeBHd231d8FkAuhAjk4vn/mG786r1IAEtdsjH3j2IOuLYZcCBUY1Mkn7n/+yR0eIwCZ5z+/5+SROQ8DBiRUYCCnn9xx8nF/cgbAh5w8stO1xTAgoQL9O/3kDtcQA7CmYw/NahUYhFCBfkw3Rn/w63tUCgAdHHto9gdf+YwRK9AfoQI9a490/OJu1xADsKED2zYZBwn9ESrQG5UCQE+0CvRHqEAPDs5O/fi3P6VSAOhJexzks58xDhJ6IlSgWwdnp4x0BKA/c1smX3pmv1aB7gkV6IpKAWBA2eh6rQJdEiqwMZUCQC60CnRPqMAGVAoAOdIq0CWhAp0c3dtUKQDkK2uVo/u2eq7QgVCBdR3fP/ONX51XKQDkrtkY+8axB48/POvRwnqECqzt+P6Z55/cseZPAUAunv/8Hq0C6zF7CNagUqBMV64ufPOd8T/++a1brTy/aq6/WP7y/fby/83m9Ctu+Ms8OjNyYs/4qh9OyPOf31Or1b72vfMpPwRYk1CBlVQKlOnK1YXnzo796L1brcDDggI8OjPyd3bb3KFVYG3+6QAfolKgTPcq5bannqCsUsZGnQOs2QMGaxIq8AGVAmVaUSn1uqefEJWymlaBFYQK3HV0b1OlQGmspeSrWpWnUtbz/Of3uLMYlggVqGVTHU+rFCiLSkmZSuns9Bf2mAUJGaECZs9D2b75zrhKSdPcpvoz/0VdpXRgbj0sESqkTqVAyb575u0/OX/LU0/QozMjJ//ayOS4G0c3oFUgI1RImkqBkn33zNunLzTznZeyHofzg5Lt+FIpXdIqJK8mVEiaSoEyXbm68C9/slhapYQvqY5yLqUPWgWEComaboy+8PS8SoFyZKfn/zDv2fNUgkrpW7Mx9sKxfdNTlqFIlFAhRdON0Ze+uHuuOeHThxK446uSclrxUSkDmtsy+dIz+7UKaRIqJCerlAOzUz56KEFPlWLmY2RUSi4ObNukVUiTUCE5KgVKYy0lZY/OjPyWSslJ1ipR/FagB0KFtJx+codKgXKolJSplNwd2Lbp9Bf2RPabgs6ECgk5/eSOY/tnfOJQDlMdkzW3qf4lUx0LcOyhWa1CUoQKqTj5xP0qBUpjqmOyHp0Z+R9NdSzMsYdmTx6Zi/Q3BysJFZJwfP/MycdnfdZQjjKnOhKUbMeXSinUySM7jz/s32gkwT9KiN/Rvc3nn9zhg4YSXLm68M13xv9EpQxDvVYb7lN3LqU0z39+z6WFxRdfv5DI75dkWVEhcgdnp06rFCiFqY4pUyklO/2FPYbWEz2hQszmmxMv/dpu4+ehBGHe8WUuSzlUSvmajbGXntk/v6WR2m+cpAgVojXdGH3h6XmVAiVwE3HKVMqwNBtjLxx/0CBIIiZUiNYLT88bmQIlUCkpUynDdWDbpheOPZjyEyBuQoU4nX5yx6Gdm324UALzUpJlXkoIDu1qGq5CrIQKEXr20Y8bmQLlMC8lWealhOPYQ7PPPv5A6k+BGAkVYnN8/8xXj2z3sUIJzEtJlnkpofnqk7sMVyE+QoWoHJydOvVZlQKFu3J14V/+ZFGlpMm5lDCd+twuFxYTGaFCPKYboy4jhhKYl5KXKt6erFKClV1Y7BIwYiJUiES7Ur6oUqBwRd/xVTf6JGAqJXBahcgIFSJx6sh2lxFD0dxEnDKVUgkHtm069bldqT8FYiFUiIFrvqAEKiVlKqVCXAJGNIQKlXd0b9M1X1A0lZIylVI5X31y19F9W67Us1sAACAASURBVFN/ClSfUKHaDs5OnX5yhw8RimaqY7JMdayo01/Y4xIwqk6oUGHTjdHTT+5wgB6KZqpjskx1rK5mY+z0F/Y6WE+lCRUq7PSTOxygh6KZ6pgsUx2r7sC2Tac/vyf1p0CVCRWq6uQT9z+1p+njg+KY6pgy51Li8NS+rSePzKX+FKgsoUIlHZ7bfPLxWZ8dFMdUx5S1K2WXSonEySM7D+/253pUklCheuabEy88Pe+Dg+K44ytlKiU+Lxx7cH5LI/WnQAUJFarnhafnHaCH4qiUlKmUKDUbYy8cfzD1p0AFCRUqxgF6KJRKSZlKiVj7YP0XHKynYoQKVXJ8/4wJ9FAo81KSNXdf/Uvz5qXE7NhDs8cfdryTKhEqVMbB2alTnzWBHgpkXkqyzEtJxKnP7TIFkgoRKlSD2Y5QNPNSkpXt+FIpKTAFkmoRKlTDqSPbHU2BgpiXkjLnUlJzYNumU5/blfpToCKEChXgaAoUx7yUlKmUNDmsQlUIFULnaAoUxx1fKVMpKXNYhUoQKoTO0RQoiEpJmUpJXHZYJfWnQPCECkE7deQBR1OgCMFWSssOtOKpFBxWoRKECuE6urd54tGP+YAgd9ZSAjGUKFMpLDnx2ANH9231PAiWUCFQ2X3EPh0ogqmOyTLVkRVOf2GP24oJllAhUC88Pe9oChTBVMdkmerIas3G2AvHHlz1wxAEoUKInn3044d2bvbRQO5MdUyWqY6s59Cu5rOPP7DOT8IwCRWCc3B26qtH3EcMOTPVMWXOpdDZV590WzEhEiqExdEUKIKpjilTKXTj9Bf2OqxCaIQKYTn5+P3uI4Z8ueMrZSqFLh3YtunkkZ2eFkERKgTk8Nxm9xFDvrJK+c+pVkriC0gqhZ6ceOyBw7ubnhnhECqEwqYvyF3ilZI4lUIfTn/eBjACIlQIxakj2+eaEz4OyNG33hlXKelYvnzUHDcvhX7MbZk0rp5wCBWCcHRv89j+GZ8F5Oi7Z97+Y/NSktQcr//W9qtuIqY/xx6aNa6eQAgVhs+mL8hdNi/ltju+0vPozMhXPz2y7/7p1B8EAzCunkAIFYbv9JM7DKGHHKmUZJnqSC6ajbHTn9/jWTJ0QoUhO7q3+dQed4xAPq5cXfiDO1MdVUqCnJ4nR0/t22oDGEMnVBgmm74gR0tTHVVKglQKubMBjKETKgyTTV+Ql843EVelXFoSqy+Pzoz8bZVC3mwAY+iECkNzeG6zTV+Qi86VQtxUCsV5at9WIyAZIqHCcNj0BXlRKSlTKRTNCEiGSKgwHCcfv994R8iFqY7Jmruv/pumOlKwuS2TJ4/s9JQZCqHCEBye23zi0Y958jA4Ux2ra8DzOI/OjPz9v+YmYspw4rEHbABjKIQKQ3DqyHaPHQZnXkpnET+YbMeXSqE0pz6328OmfEKFsp184v4Ds1MeOwzCvJSUOZdC+Q5s23TyyJwHT8mECqWab06cfHzWM4dBmJeSMpXCsJw8snN+S8Pjp0xChVKd/pybvmAgfdzxJWeioVIYrtNfMFaFUgkVynN0b/PQzs0eOPQt7puITXvsTKUwdId2NY/u2+pzoDRChZIYnAIDMi8lZSqFQJz+wh5jVSiNUKEkJx+/vznpX7HQP/NSktUcNy+FUDQbY8aqUBqhQhkOzk4ZnAKDMC8lWc3x+t/eftVNxITjxGMPHNy+yQdCCYQKZTj1WYNToH/mpSTr0ZmRf/TpkX33T6f+IAiMsSqUQ6hQuOP7Z5yhh74NWCnJ1k3gv/Fuvj1THQnWoV3N4w8bNkDhhArFmm6MWk6B/pjqmDKn5wncqc/tcqqeogkViuUMPfQntamO7iZeTqUQPqfqKYFQoUDzzQln6KEPbiJOmUqhKk489oBZ9RRKqFAgc+ihDyolZSqFajGrnkIJFYpiDj30Id9Kqcp2Kvu+MiqFyjGrnkIJFYpy6ogz9NAzUx2TNXefqY5UkquKKY5QoRAnn7h/rjnh2UJPTHXMS+VWaB6dGfn7f81NxFTS3JbJk0fmfHYUQaiQv+nG6LPO0EOPTHVMx4oP2bwUqu7Zx7e7qpgiCBXyd+rIdlcSQ/fuzEu5lXulSJ5KcC6FCDQbY6c+t8snSe6ECjmbb04c2z/jqUKXrlxd+Cdnx/4omXkpLKdSiMaxh2ZdVUzuhAo5cyUxdC+rlP/8XtKNkuyVXyqFyLiqmNwJFfJ0eG6zK4mhS8srpWWjVmJUCvE5tKt5eHfTB0uOhAp5OvnErOcJ3Sh6LSXl7gn/965SiJXrv8iXUCE3x/fPWE6BLn3rnYmlSrGckpTmuHkpROvQrubxh/2RJbkRKuTGcgp06btn3v4T81KS1ByvP7P9qpuIiZhFFXIkVMjH8f0zJjxCN7575u2vXZh2x1cm95P0IT/XR2ZGfv/TI/vun171MxCPuS2TFlXIi1AhB9ON0VOf3e5JwoZUSrIeMdWRZJz63C7zH8mFUCEHJx79uAmP0Fk21XF1pRRxQEUHheYRp+dJSbMxduKxB3zkDE6oMKjpxuizj37MY4QOTHVMmUohQc8+vt2iCoMTKgzKcgp0ZqpjylQKabKoQi6ECgOxnAKdda6UxPd9RX+SXqWQMosqDE6oMBDLKdBB50ohbiqFxFlUYXBChf7NNycsp0AHy6c6lkMSBcJUR8gWVea3NDwJ+iZU6N/JJ2Ytp8B6NpzqaCB9rEx1hEyzMXbyszs9DPomVOjTfHPi2P4ZTw/WZF7KhnI/oBIIUx1huWMPzVpUoW9ChT6dfMLcWVjbsCol8SwK4bdvqiOsZlGFvgkV+mE5Bda03lTH1ez7io/T87Amiyr0TajQj2MHVAqsZKpjylQKdHDsYbsw6IdQoWdmp8BqPd1EnPj4lPgOqKgU6MxMFfojVOiZ2SmwgnkpQzfER69SYENmqtAfoUJvLKfAauXPSyEQ5qVAlyyq0AehQm8sp8AKG85LWcG+r2iYlwLds6hCH4QKPbCcAiuYl9KHOA6omJcCvbKoQq+ECj04uqdpOQWW9FEpbiUuQvnP1LwU6EOzMXZ031ZPju4JFXpgyCNkup+XUgLpUzKn56FvJ4/MeXh0T6jQreP7Z+aaEx4XmJeSMpUCg5jbMnncTBW6JlToluUUGPAmYvu+qn5ARaXA4Cyq0D2hQlcOz222nAIBVor0Ke0JqBTIxdyWycO7m54l3RAqdMVyCpjqmDKVAjmyqEKXhAobOzg7dWjnZg+KxA0y1dGmr0xF932Z6gj5OrSreXD7Jg+VDQkVNnbC7BSS1+tUx3KonxKY6ghFOPG44Y9sTKiwgfnmxLH9M53/GojbgFMdLadkilhOKfrJmuoIBTn20Oz8loanS2dChQ0cO6BSSFqws+fVT9FMdYRCHXNPMRsRKmzgWfu+SFUuUx1d9lVRTs9D0Z59fLtnTGdChU6O759pTvr3NCky1TFf1dr3pVKgBM3GmOGPdCZU6MQxetKU103EllOqSKVAaRyppzOhwroOz20+MDu13s9CrMxLqYSCPh6VAmU6sG2T4Y90IFRY17H9W9b7KYjYIPNSlnPZ15KqjE8xLwXK50g9HQgV1uZWYtIU5ryU5dRPQcxLgaFwTzEdCBXW5lZiEpTjTcSWU6rFvBQYIosqrEeosLbj9n2RmGDnpSxXxfoJ/74v81JguNz9xXqECms4urc515xY/eMQpVzmpSxnOaVCnJ6HoZvbMnl031afA6sJFdbgVmLSUaF5KeondyoFAuGeYtYkVFhpvjlxaOfmVT8MESriJmLLKcuFvO9LpUA4Du1qOlLPakKFlU48+vFVPwYRqlalqJ98qRQIzYnHt/tMWEGosNLxA47REz9rKRWVyyNWKRAgR+pZTajwIUf3NpuT/uVN/PKa6kgHYc55NNURwtRsjDlSzwpChQ8xjZ4UFDHVsdDlFEWVF1MdIWQGqrCCf1jzgfnmxFN7mh4IcavEvBSK8MjMyG/O1yfHTXWEQD21b+v8lsabF6/5gMhYUeEDptETvYIqxXLKaqHd92WqI1SCRRWWEyp8wDR6Ipb7VMclKiV8Ts9DVThSz3JChbsOz202jZ5YVWiq43LVrZSgllNUClTI3JbJw7vtQucuocJdjtETqyJuIl7iSuLAqRSoHLu/WCJUaJtujB7d6w8wiFB1K8VyyuBUClTR0X1bp6ccJ6MmVLjr6B7jU4iTeSnJMi8FKspAFZYIFdqe2vtRz4H4FDEvZYnllDUVtJzS66/aGK2ZlwLV9ZRQ4Q6hgvEpxKnQeSmOpoSsOV4/8cmFffeblwJVlQ1U8fEhVKg5nUJ8Kl0pllNW/rKrfqSDR2ZGfv/TIyoFqu7oL1tUQajgvi+iY/Z8skx1hGi4+yt5NaFCe9/Xgdkpz4E4FDfVcYnllGC54wticmDbJru/ECqpO/Hox1N/BMSihKmOKqWD4e77UikQnxOPb/epJk6opO6o+76IQqHzUjIO0JdPpUDKju77mM8/cUIlaQdnp+aaE6k/BaqvhEopgeWU/qgUiNXclsmD2zf5eFMmVJJ2bP9M6o+AKJQw1dFySphMdYS4OVKfOKGSNPu+iEChUx0zJVSK5ZTVNvxVm+N1Ux0hbnZ/JU6opMu+LyIQx03EFmv6YF4KpMDur8QJlXTZ90XVlVMpbvrqbCjLKealQDrs/kqZUEmXfV9UVwnzUrJEcTQlQE7PQ1Ls/kqZUEmUfV9UVwnzUkpjOWVNHX5VlQKpsfsrZUIlUfZ9UVGl3UTsAH2AVAqkye6vZAmVRNn3RRXFVCkRKHl2ikqBZNn9lSyhkqL55oR9X1RRCfNSSqsUJbSeNZ+MeSmQsrktk/NbGv4WSJBQSdHRvc3UHwEVVMK8lNKs+S5esd9Cib+HxmjNvBRI3NFf3pr6I0iSUEnRsf1bUn8EVE1p81Js+hqu1U+/OV4/8ckF81IgcY6ppMkfUCVnvjlxYHYq9adApURWKZZTuvfIzMhvztcnx1UKpO7Atk3zWxpvXryW+oNIjBWV5Bye25z6I6BSVEo6VjwcUx2B5Q7vtnE9OUIlOU+574uKKGeqY5mDHeOolHKWU9zxBazw1D7HVJLjT6qS89QefyBBBdy7ibjw0/OlHUpRKZ0t/4VVCrCaUEmQFZW0uO+LSohvXoodX52pFKAbR7VKYoRKWg7tdECF0JnqGKwSNn2pFKCDQ46pJEaopMVAesJXzlTHMumhLpnqCHRmRH1qhEpCDs5OGUhP4Eqb6mjTV6+KPp3SHK+b6gh0Nrdl8uD2TR3/EqIiVBLiYmICZ6pjsh6ZGfn9T4+Y6ghs6PBu/6BIiFBJyKE5fwhBuKKsFMspG//K5qUAvTi0yzGVhPgXQ0JcTEyYrlxd+NY7E3+iUpLk9DzQE5cUJ8WKSipcTEyYsju+/ujnt6KZ6njvy8WjuOWUh1UK0DuXFKdjrH79eurPIA2HH2ik/ggIT6w3EVtL6cYjMyPPqBSgd4d2N198/YIHl4Kx1jWhkoRD8x9J/REQGJUSvuLWUlQK0Dfn6dNh61cSpqfGDmxzkp6wlDMvRaUEqDle/w3zUoB+Hdi2aXrKKeskCJUk2M1JaMqZl+Ia4kEUtJzSGK19ybwUYDBebBIhVJJwaLeT9ASknJuIy68UVbSh5nj9y59cMC8FGJAXm0T4M60kHN7ltYBQqJRKKGI55ZGZkd+Yr0+O+8cRMCgvNomwohK/+S2NuS2TqT8FwlBCpZR8DfG9L8oGstPzdnwBuZjbMjm/xXWm8RMq8TtseZQAXLm68Ac/uVVCpaz6scLFVym5L6e44wvIndebFAiV+NnHydCVMNVxKAspKqUbKgUogtebFAiV+NnHyXCVMC9lWLd72fG1IZUCFMTrTQqESuQcUGG4Yq2UVqSVku9yikoBiuOYSgqESuTs4GS4ip7qaFJKsEx1BIrmJSd6QiVydnAyREVPdbTjK185LqeY6giUwEtO9PxbJHIHt29O/REwJIXeRDzEhRSVsqHmeP1L26+a6ggUzUtO9IRKzKanxg5s25T6U2AYiquU4e71UikbMtURKM2BbZump8YuLSx65LGy9Stmh3dZEmUIVEq15FsppjoCZfKqEzehErMDlkQpV3FTHYc1JmXZN8AG3PEFlM+rTtyESszchkGZipvqOPSrvSKulLyWU1QKMBRedeJmgT5mh6yHUpaC5qWEcPuwStmQSgGGxatO3KyoROvgdsfoKUkRlTL0vV4RT3XMl0oBhssLT8SESrQO73brDiXJfaqjhZQS5LKcYqojMHReeCImVKJ1wB8wUIp8pzqGsJCiUrqUzUtxxxcwXF54IuZfMNEyBYkS5HsTcQiJ4oKvLpmXAgTCC0/EhEq0jHqkaHlVSiB9kkmhUgZfTnEuBQiHF56I2foVJ7f1Uagc56WolJKpFCA+XntiJVTidGiX/RgUJa95KYEcR1miUrqhUoAAee2Jla1fcXJVHwXJ5SbioPoknUMpKgWIldeeWAmVODlYRhEGr5TQEkWldE+lAMHy2hMrW7/iNLdlMvVHQAEGmZcS2kavjAu+umReChAyrz2xEioRcqSMIvQ9LyXMREmqUgZcTmmM1sxLAQLn5SdKQiVCFkDJXX83EYecKCqlS83x+pc/ubDvfgdVgaB5+YmSPyGLkBGt5KuPSgmzTzJJbfcasFJMdQSqwstPlIRKhOa3NFJ/BOSnp0oJuU8yDqV0z+l5oEK8/ERJqETo0C7bNMnBlasL33pn4k+6qJTw+yTNRBlkOUWlANXi5SdKzqjExlXi5KLLqY7BnkJZLqkTKUtUCpAar0DxESqxsfTJ4Dacl5L1iYWUYKkUIEFegeIjVGJzwK0XDKZDpVSoT5JdSFEpQLK8AsVHqMTGuicDWnOqY4X6JHGDVIqpjkCleQWKj1CJzfyMdU/6t2KqY7WWUJZYS+lDc7xuqiNQaV6B4uPfSbE5sM0fJ9Cn7CbiWwOO3hgqiz79MS8FiIBXoPhYUYmKRU/69t0zb5++0FQp1dX3R5edS7GWAkTAi1BkhEpU3HdBH65cXfiDnyyevtDsfBNxyJLd67VkwEpxLgWIgxehyAiVqLjvgl5dubrw3NmxP9xoXkqwJIpKAVjiRSgyQiUq8zOTqT8CepFVyn9+73ZFn5pEUSkAy3kRioxNyVGx4kn3Kl0pEiWjUgCW8yIUGSsqUTm0q5n6I6Br33pnXKWkybwUIFZehCIjVOIxPWV9jG5998zbf7xsXkpVOJGyJBtw04fGaM28FCBiXodiIlTi4Uo+upTdRFyt0/MSZbm+d3w1x+tf/uTCvvvNSwGi5XUoJqIzHvZl0o3KVYo+WWGQcymmOgLRu/M6dNnnHAehEo85ocJGqlUpEmU1p+cBOvM6FBOhEg9rnXRw5erCt94Z/+OKVIpEWZNKAdiQ16GYCJV4OD3Geu7dRFyB0/MSZT0qBaAbXodi4rOMhz9CYE1VmZciUTpQKQBd8joUE6ESj2bDp8lK4VeKPtmQSgHontehmLieOBL+/IA1BT7VUaUUx1RHIFleiqIhVCJhRyarhTzV0VyUbpjqCNAHL0XRECqROLh9c+qPgA8L8ybilkTpmqmOAP3xUhQNxRkJOzJZLsBKESc9MdURoG9eiqLhg4zE/Mxk6o+Ae4KqFH3SB6fnAQbhpSgaQiUS8+awEtJUR33SN5UCMCAvRdEQKpFwbowQpjrqkwGpFIDBeSmKhg8yEge2uYkvacOdl6JPcqFSAHLhpSgaQgVicGdeynDWUlTK4PpOFPNSAIiY64ljcHh3M/VHkLby56W0XDScn0EqxbwUgDV5NYqDf71BtZV5x5csyd2Aaylf2n7VvBQAYiVUYjDtvvBUlVAp4qQ4g1SKeSkAHXg1ioOtXzE4YAJrkoqrFDu7SjBgpTyza8SOL4D1eDWKg3/PQfUUMS9Fk5Rp8Epxeh6A6AmVGJjAmpS85qUok6EYJFFUCkCXvBrFQajEwATWdPQ9L0WWhEClAJTDq1EchApURveVIktCM2CiqBQAEiRUYnBwuwmsSeg81VGcRMxUR4CeeDWKg1u/YtB0B18CsqmOrQ9fyeV6rvC1WoMup5jqCNArr0Zx8ClCBWQ3Ed+SI1Uz+I4vUx0BSJZQqbzpKR9i5FRKReVyLsVUR4D+TE+NXVpY9PAqzdavyrMLM24qpaLyOj1vxxdAf7wgRcC/AiFQV64ufPOd8T9RKVUzeKK44wuA5NWECgQqu4n4R+vf8UWAckkUlQIAGVu/Ks9Io/jcq5SepzoyRCoFIChekCJgRaXy5vz3MDrffGfcWkq15FUpic9L+Yv3b9+U50M1rH2mD37UH5uSPy9IERAqEJbvnnn7Ty40fSgVklel3JuXkuIdX29fePcPLnzk+xc/lCklvDQX/iUK+AKFfs9DCZXHbr354H+5d9UPAwgVCIk7vqolr0RJfF7K2xfe/Uc/2/zWgkoZyi9517D+qfPYrTd/S6UA6xAqlTc9ZS97JFRKheSYKInPS7lXKR96oDFUCl1QKUBndoVW3sHtm1N/BFFQKRWSe6UkOy9lWJVSBsspG1EpFO3wbvuoK8+KCgyZeSkVkm+iJH7H1xArxaavoVMpQDeECgyTeSkVolJypFLCUf73q1KALgkVGBrzUqoi90RRKasrpRwVrZRollOmx+tPj77xNw5+atXPAKxBqMBwqJSqUCn5WrNSIllLqaAyn8n0eP13tv78l+ZVCtAth+krb3pKbVbSnamOKiV0RVRK4lMd/+DCR4ayllIGyykdPT36xi/N7+z0V0CuvCBFwEdYeQe2bUr9EVSQqY7hKyJRTHVcPdXRckpn0Yx3fOzWm3Z8UTIvSBEQKlA2NxEHrqBEMdVx9VTHqCrFTV/rc3oe6I9QgVKplMAVVymmOq7e8aVShqi0b1mlAH0TKlAelRKy4hLF6fkhVkp1xbHpS6UAgxAqUAZTHUNWaKKolOFWiuWUIVIpwICEChTOVMdgFZ0oKkWlhPSrFvotr6RSgMEJFSiWeSlhKiFRVMqalVKa6q5zVH2FxlRHIC/mqECxzEsJUDmVYl7KmpWyxg9VlzP0a1EpQF6EChSoPS/lvB1fAWm1SqqUe/NSEl21fuE//GT1vBSbvob3q95VwmMxLwXIka1fUBR3fAWlnD7JNEZrX/7kQrLzUtpTHRdmV/2MSomfcylAvoQKFEKlhKPMRDHVcc2pjipl2L9wrYQno1KA3AkVyN+/ef0vTl/doVKGruREMdVxvdPza/xQMSr93zmVArCCMyrVdnh3M/VHEKRfun/mE5P11J/CUJV2FmW57I6vNM+lJFQpFTyaUjSVQrAObt/kw6k0oQL5+8TWma888P62hlYpW9Yn5SeKm4hVSni/atHf9V0qhZBNT9k6VG1CBQqhVUo2rD7JqJT4byKu7O+nuO96erz+G40zKgUojlCptksLi6k/goBplXIMN1FUSgiV4mhK+abH67+z9eduIiZwXpOqTqhU26vnrqT+CML2ia0zx7dcSP0pFGm4iWKqYwhTHSu96atoxX3XT4++8UvzO1f9MITFa1LVCRUo1t4d2442znvI+RriWZTlUp7q+PaFd5/70c3hTnWMYHdZRb9/Ux2BcggVKNzR/Tu1Sl5C6JNMc7ye8lTHf/SzzUOvlPI4Q7+M0/NAaVyGAGU4un/np3761tcubn3rmukq/QgkTpaYl2LHV6i/cLFUClAmKypQkr07tjlb34dwllCWmJfi9Hz4inhEKgUomVCB8rgHrHuBnEJZzR1fCVVKZZdTVAoQB6ECpdIqnQXbJxmVolIC/oUL/MZVCjAUQgXKplXWFHKfZFRKElMdM5X9XeX+jZvqCAyRUIEhMF9lufATxbyUEOalxBFFlfstPD36hpuIgWERKjAc5qsEvstruZTnpdRqtRf+w09CuInYpq/yf33zUoDhEiowNGnOV6lQn2Qao7WU56U896ObLyzMrvoZlRLOL1wU51KAoRMqMEyJtMpSnFSoTzKmOlpLCfsXLup7VylACIRK5b321pXUH0HFHd2/83e3vRvl2fqKxsmSR2ZG/uGnR1KuFOdSqkKlwGpekCIgVCrv0sJi6o+g+mKaBVndxZMVTHVcXSmtuNdSbPq6Q6UQDS9IERAqEIRK31kcTZwscRPxmpVSsgh2fJXzu8jxS6gUIChCBUJRrVaJL06WqJS0KqVIFaoU81KAAAkVCEjIrbK8TOKLk0yrVntYpaRWKVX+mznHSvmdrT93EzEQGqECYQlwFmTEZbJc684dX79pquOHRf7JV3zTV16eHn3jl+Z3Vuf7BVIhVCrv5Tcup/4IojP0WZApLJ4sl52jbozWnkl1qmM2L2X1TcRD+fAdTSn5S5jqSKy8IEVAqECIypyvsiJLUiiTJUtXPTXH6yfMS/mwyCul4nKsFOdSgGCl+GeHUAlH9+/81E/f+trFrW9dy/PlLakO6WD5Y3hkZuQ35+uT4+alfCD+SjHbUaUAwbOiAuEaZL7K6nWS1FZL1tNaVSl/27yUZcofljKEL+q/CCoFqAKhUnlnL15L/RFErcM9YKsjRJB00FrrbTirFHd8LUliu5ejKSqFNHhBioBQqbw3/fcwdlmr3N+oS5H+rO6TjEpJrlLW+1shv1++aCoFuucFKQJCBSrgE1tnfueB97dNrbGuQgcd3ktVyvJK6fCgChVTblfi92KqI1AtQgWq4RNbZ/5mYPNVAtfhxdG8lNWn5+NX/d/x4L+Dp0ffcBMxUCFCpfJePXcl9UeQjPZ8lalhzlephDXPoiyX8ryUWq32wn/4yfKbiDs/q+JEdnq+Epu+zEshNV6QIiBUKu/SwmLqjyAlv7J/p1ZZ04Z9kmmM1lKel/Lcj26+sDC79CPDWmOI6fR8VZZqnEshQV6QIiBUoGK0ygrd/9m8qY4r1lKGQqWU/1VUClBRQiUGl6/5M4O0/Mr+nf/99nedre9p+9AjMyO//+mRlCtlxen5oVApxWPiwQAAIABJREFU5X8VlUKazl687pOPgFCJgV2YCdq7Y1ua94C1ut7ltZypjkuVMqxDKfFNWVQpEDJ3E8dBqEBVpXZncd9v2G4iXl4pwzKEL13xkSkqBUCoxMAfGyQrhVbpY/1kOZWSVcoQF1JUylC+ikohcV6N4iBUYvDmuzZipivWVhmwTzIqZalShmUIgVT98fMDMtURvBpFQ6hA5UU2CzKv90xTHYdeKfRtkE/NVEcgGkIlBq+dez/1R5C8CGZB5rKEssRUx+wm4uFWSmQ7viqx6ctUR8h4NYqDUInBJdcTU9n5Kvn2ScZUxxcWZod7KEWlDIVzKbDEq1EchArEoyrzVfq7YrhLpjp+/+LtoSeKSin/C6kUID5CJQYvv3E59UfAPcHOVyk0TpakPNXx/DvvfvlH9735/vArJb6vqlKgcrwaxUGoQGyCugeshDhZkvJUx/PvvPvbP7rvL95rvXml9d7NoaVKlJVSGpUCsIJQicRrbxlOzweG2yrlLJ6skPJNxOffeffv/PC+H7/fft63WrW/vNr6+UJ8e6/WUfxaSuAH6FUKrOalKBpCJRKXFhwa40NKbpWhxMkSlfLmlQ89+Is3Sm2VoR1KSXvHl3kpsB4vRdEQKpEwgZXVSpivMsQ4WZL4vJR/+JebV1RK5uKNYe4BowTmpcB6vBRFQ6hEwgRW1pT7fJXWsBdPVkh8Xsq/+P7Zl9++teqH73proXX9VuGfUqznUgJfTjEvBTrwUhQNoRKJy+4LZx2Dz1cJqkyWS3leyvl33v17r974Jxc+sepnPnCrVTt7pcBWGdrfEirFuRToyEtRNIRKJF41gZX19dQqrVX/E6aU56Vk51I6rKUsKa5VIr5ZTKVA1XkpioZQiYRzY3S25izI1U1SlTMNic9LWX16voPcW2WYf5+oFJUCXfBSFA2hEolXz7mJjw1ksyDvn6pXq0lWS3xeSk+VksmxVYaZKCpFpUB3vBRFQ6jEw45MNvSJrTN/N8i59d1zE3GvlZLJWmXAe8DiHiQZeLqrFOiS16GYCJV4+PMDulHpVlEp/VVKZsBZkCpliF9LpUD3vA7FRKjEw45MulTRVlEpg1TKkj5mQcZ9KKXkHV+9fi1THaFXXodiIlTi4Y8Q6N4nts78rYJnQebLVMdcKiVTmVmQdnyZ6gi98zoUE6ESj7PmsNKLvTu2/UqusyCLY6pjNzcR96TLWZDWUob7tUx1hD54HYqJUInHm/6bSY9+Zf/O8FvFVMfOUx370809YJ1+rmgqxbkU6JfXoZgIlXhY66QPgbeKqY65r6Us6dAqQ769WqWoFBiA16GYCJV4OD1Gf35l/87/YdUsyBCY6pjjuZQ1rdkqQz6zoVJUCgzG61BMhEpUXjlzOfVHQF/27tgW2j1gpjoWXSmZFa2iUoZOpcAgvAhFRqhExb5M+hbUncVuIi6nUjJLsyCHvN0rxkrp9cupFBiQF6HICJWovPnu9dQfAQMIpFVUSpmVkr1ML7ZqPx1gFmQO30FUX6ef35Z5KZALL0KRESpRee3c+6k/AgYz9Pkq5qWUXCnLDWe+ikq5w7wUyIUXocgIlahY8WRwQ5yvYl5KcXd8rWn1fqsu56vk+R1E9XX6/G2ZlwJ58SIUGaESFVfykYuh3FlsXkoR81I6WPNles17wEr9Dir8de5yLgWGyItQZIRKbF57y39FyUHJrWJeSplrKasXUpYrqVVUyh0qBXLkFSg+QiU2b75r0ZN8lDZfxbyUMs+ldPOVCm8VlXKHSoF8eQWKj1CJjUVPclTCfBXzUkqrlM4LKSsU1SolDr1XKZAar0DxESqxcd8F+Sr0zmI3EZdZKb1amq8yzG+iAl+qplIgEF6B4iNUYuO+C3JXUKuolHIqZZA1jFut2l/mMl+l3IUUlQJp8goUH6ESG+ueFCH3VlEppVXK4C7eGKxV4l1IMdURguIVKD5CJUKvnLmc+iOgADnOgjTVsUKVkhnOLMjomOoIxfHyEyWhEiFLnxQkl1mQpjqWcBNxEduf+pkFWe42rPJ3fPX0FU11hEJ5+YmSUInQa5Y+KcyA81VMdSx6qmNxadDzPWDldoNzKZA4Lz9REioRetWtFxSp71Yx1bHotZSiX9Z7aBWVsoxKgRJ4+YmSUInQy2/Ypkmx+pgFaapjoedSSttjtXGrlL7dS6UAXn5iJVTidPbi9dQfAQXraRakqY7FVUr5b+qdWmWtHytO4Hd8qRQozWtv2fcVJ6ESJwuglKDLO4vdRFxopQzFGrMgSw8mlQIsefNdJ+njJFTi5CpxyrFhq6iUgiql/IWUFT40C7L0RFEpwHJee2IlVOL0yplLqT8CytJhvop5KcVVSiDMV1nTEx8fVSlQJq89sRIqcXKkjDKtOV/FvJQi7vga+kLKCq3+5qsM9hXL1+u8lGd2J/q3PQyL155YCZVoOVhGmVbcWZzyvJSsUnKflxJgomTfz2KrdvZqSa0ylB1fvVaKtRQomReeiAmVaDlPT8mWWsVUxyIqJSgrvp8SWsW5FGA9XngiZnk6Wu0RrQ+l/hAo2a/s3/ngT9+6sXhr3/2fTPDZ3zs9n9uOrwAPf6z3LWWtMndfbXJ03ZsVcv+ihVIpUBVm0kdMqETr5TccLGMI9u7YluZjz/2OrwpVSqagVun8RQuiUqBCvPBEzNavaLmqD0qTb6WEdhwl0823lLVKXveADes5qBSoFi88ERMqMXvljEswoHA5VkqwidL9d7XYqv10ofXza4P+Pob1HFQKVItXnbgJlZi5rQ+KllelRJAoy717Y6BWqUSlTI/Xf6NxRqXAcHnViZtQidlr7sGAguUy1THMiYkDflfv9jsLsirzI58efeNvHPzUqh8GSuVVJ25CJWYvWw+FIg0+1THMhZS8auGtaz3fWTzEtZRe56WoFAiBV524CZWYXVpYNAUJijD4vJRgEyXHWuh1vopzKUBPXnvryqWFRc8sYkIlcqYgQe6ycyl9r6UEnij5fm9dtsoQn4lKgerykhM9oRK5Vxwyg1wNcno+5EQpbkFjw1ZZ9yeKp1Kg0rzkRE+oRM5tGJCjvisl/EQp9Ntbr1WG+1hUClSdl5zoCZXIvXnx2tmL11N/CpCH/iol8URZsnoW5HAfi0qBqjt78fqbF6/5GOMmVOL38plLqT8CGFivldKSKKssnwU53IUUlQIR8HqTAqESPzs4YUA9VUrgfZIZ4nc44CzIAfX6hU11hGB5vUmBUImfHZwwoO6nOlZiWOHQv8m+Z0EOqI8vaaojBMvrTQqESvwcU4FBdDnVsSoLKYF8k33MghxQH1/MVEcIlgMqiRAqSbCPE/rQzVTH8M+iZEL7Jm+tcw9YQfqrFDu+IFhebBIhVJJgHyf0asOpjpXok0yY32dpraJSID5ebBIhVJLw4usXUn8E0IsOp+ersoSSCfxbLaFVVApEyYtNIoRKEi4tLL721pXUnwJ0Z71KqVCfVOi7La5V+nsCKgXC99pbVy4tLPqgUiBUUvHyG3ZzwsbWrJRqJUpVLh9bcmvVLMjB9fdrqRSoBK806RAqqbCbEza0olKqtcurit/wklut2l8u5DZfpY9fxbwUqBCvNOkQKqmwmxM2tDQvpaKv+1V3MY/5Kv3935uXAhXilSYdQiUh3/RfbFhfNi+lookSTVkNOF+l7x1fKgWqwstMUoRKQl45Y6kU1nD+nXf/7qs3nrvwCYkydH2fre/7OTiXAtXiZSYpY6k/gJQ4fAarnX/n3d9qn0tZd15KsGLdnJa1ytx9tcnR+qqfXFvfj0KlQOW8+B+tqCTEikpCXj135ezF66k/BVjmXqVU7J0/+iM0Pa2rqBRIx9mL19+8eM0Hng6hkpYXX38n9UcA91SxUtI55d9lq2zw0+tTKVBFXmNSI1TS4kY/yFSuUhK8iKzzfJVBHohKgYryGpMaoZIWN/pB5Sol5buS15uvMsgDUSlQXV5jUiNUkuNePxJXoUoxziVz8cYHrTLIMzHVESrNC0yChEpy/PecxP0v96Y6Bk6iLJfLLEhTHaHSvMAkSKgk52X7O0nY1+9MdQz8928hZU1vXWtdG2AWpKmOUHVeYBIkVJLz5sVrr711JfWnQHqyqY7/5MInQv6dS5T1tFq1xdu1s1f6nFvvXApU3WtvXXExcYKESoq+/r3zqT8CEpOdSwl5LUWidNC692ja94D13ioqBSLg1SVNQiVFprqSlMBPz0uUDlqtDyol02urqBSIg1eXNAmVFL158ZoR9SQi2EppSZSNtNZ5Ot23ikqBOBhInyyhkiizXUlBmJWiTza0eiFlhaxVOt8DplIgGl5akiVUEmWvJ9ELsFIkSjc6J8qS9izIq62fL6z9V6sUiImXlmQJlUS9eu6K3V/ELbR5KRKlG11WypI156s88fFRlQLROHvx+qvn3FaaKKGSLgupRCyceSnOonSv10rJvLXwofMqj91685ndY6v+KqCqvK6kTKiky0Iqsfr698+GMC9Fn3Rvw0MpHSw/W2/HF8TH60rKhEq67P4iPteu3whhqqNE6UnfibIka5UHL/25SoHI2PeVOKGSNMupRKYxOfG3tlyY31Qfym/LLq9eDbKQssJf/dkP//n/82c/fOPHq34GqDAvKokTKkmznEp89s1t+6d7r5bcKvqkD3klSq1We/fPf/hX3/vB+csL/82pf6dVICZeVBInVJJm9xdRmv3YTDmtYgmlPzkupCxVSvafs1b51kv/btVfBVSPfV8IldRZVCVKhbaKPhlEjomyolIy5y8v/LfP/6e/97//36v+WqBivKIgVFL33HfOpf4IiFQRraJPBpHvQsriwsLPXvnOikpZ8k//9TtaBarOKwpCJXVvXrz22lvWVYnT7Mdm/qdPXszltyZRBpTvQkp75eTff+/9n/5s1Q9/4J/+63fsAYPqeu2tK29evOYDTJxQwUk1YrZvbtuXt749yG9Qogwu90p5989/2LlSMif+rx87Ww8V5eUkeTWhQtuL//GC50DEjj0010erOIiSi3y3e2VWn0tZj3vAoLq8nCSvJlSoZbu/vvm6fxwQs+5bRZ/kKPdE6alSMucvL/zXWgWq5puvX7DvK3k1ocJdQoXoHXto7l/svbTe2Xp9kq8iFlL6qJTsk9UqUDleS8gIFWp3bgC8cPnaokdB3FbPgtQnuSsoUfqolOWfrFaBCrl8bfFFocIdQoW2Swv+oUASsjuL5zbV9UkRCkqU/iplhaxV3AMG4Xvx9QuXFvzhKTWhwgdcr0EiZj82889KmVuflOIWUnqtlA4Jev7ywhfMgoTgeSFhiVDhrpffuHz24nVPgxTMfmzmf85pvgqFLqS0N4Gc+XFPlbKh/818FQjY2YvXX37jsk+IjFDhA1/zZxgkY9/cthODzVchU2ilvPvnP/z5v+k2Krr/Rr5svgqEyqsIywkVPmCxlaQce2hOqwyi0O1efez46p6z9RAsryIsJ1T4gIEqpEar9KfoROmpUjocSulAq0CAjE9hBaHCh/iTDFKjVXpSQqL0Wil90yoQGi8hrCBU+BADVUjQsYfm/o/1Z0GypIREaVfKn3VVKblcMK1VIBzGp7CaUGEl59hI0L65be4s7qCchZQPKmWjr5Xj96JVIBBeP1hNqLDSc985t+rHIH7mq6yptESp1WoX25Xyp3f/l3W+aBGTOs2ChBB4/WA1ocJKb1689soZV5iTIq2yXJmJsriwcO6l79yrlHtfddVXX/UDuTELEobrlTOXHaNnNaHCGp77zs9W/yCkwCzITGmJknn7337v/Z/+Za1Vu9eIa3z5NX4ob2ZBwrB48WBNQoU1vPj6BVPqSZZZkCVXysU/+2G7Uu5+7Q+3yrqLK0UxCxLKd/bidcfoWZNQYW3OtJGyZO8sLnO7V6Z9LuX/+9MP/dCHW6Xkb8nZeiifVw7WI1RYm7vMSVxqrVJ+orQr5T/9+V/9+z9d9cMftEqr/CUVrQKl88rBeoQKa3vz4rWvf98/OEhaIvNVhpIodyulvZbSWjNCln1LWgVi9vXvn3eMnvUIFdblTzgg7vkqw0qUrFLe+WDH18pWad37/1aerS/xu/35pauf/eq//eFfaBUolpcNOhAqrOvlNy6/9taV9X4WEhHlncVDTJS7lXJnx9eyZ9paOjz/oe9rSK3SuvN0zl9e+Oypf+seMCjOa29defkNExFYl1ChE9cFQmStMtxEWV4pWXIsb5XWmt9Z6a2y/Ns4f3nh8//89b/3z8xXgUJ4zaAzoUInX/ve+cvXFjv8BZCIOOarrBkCZfrFX5x5Z/np+Xut0lq23WsNq1ulMGvG0v/6r//Kugrk7vK1Rfd90ZlQYQP/+DvnOv8FkIhKz1cZ+kJKey3l9T8//93/d2VsrD6fsub3uc58lXytWSmZ/+7/POO8CuTLCwYbEipswCk3WFLFO4tDSJSsUt7599+/t3TywfJJ616ErD6vslKRrdJqrbPx7J7svIpWgRx5wWBDQoUNuKcYlqtQqwSSKLVa7VJWKUtaq7ahrTqvsnaHrG6VNf+yHnVOlCVaBXLkVmK6IVTYmLNusFz4rRJOotytlH/3/fqy76d1N1PWuJO451ZZ9cv0ZMOFlBW0CuTFqwXdECps7NVzV1454/ZA+ECwsyCDSpSlSsn+c71199z8XcNulZ4SZYlWgcG9cubyq+fMP+D/b+/uY+O+78OOHx8ly3akeH6qg1p2ujRuWidxkqF/VFmjbNmAuSgmdS3QZIAjDViRtOkqZwVaoENAbJizrp2kDUuUrOjErXEhDQskeQ62cAikiM6TKVlPpBva4kgGpMyqDHl2aB7FI284/qQTyTtS9/i77929XghQiaLl0+8Kk299Hz53JlQoSk/fmAcFq4U2CzK0RMlWypW/+pvvD+R+Gi2krHle9WuV8iololWgQr6poEhChaKcvpocm1nwrGC1EOarRH0SWqLcrpRbx1FWL6SU3iqF/njltkqp270KMgsSyjY2s2DII0USKhTL339Avjq2Sph9EsmtpWx0HKXEVtlgBEyJrVKVRMkxCxLK49sJiidUKNbRgSmLKpCvLrMgg02URCLx1msjuUq5qVCK5LXdHVsl799UsFXiZRYklGRsZsGQR4onVCiBvwWBguKcBRnyQkq0lvLX3/5OW343FGqVvB8X+ISqzFep7lrKOmZBQvF8I0FJhAolODE4nUylPTHIF8OdxYEnykqlvDr9/YHodbblv9S8Vmlb1yp5n1CV+Sq1S5SIs/VQpGQqfWJw2tOieEKFEszOpw+dnfTEoKAatUqwx+XXmb3y6t98b2B1FZTcKoU+oZJ7wGq6kLKaVoFiHDo7OTvvrzspgVChNIf7JyyqwEaqO1+lIfokkq2U7+ZuIg6iVbKJUvDTakOrwOaSqfThfkMeKY1QoTQWVWBzlc9XaZQllJzZy7cqZe3x+UiRrZJ3br6iVslklvNeSM1pFdiE5RTKIFQomUUV2FzZdxY3Vp9EFZCtlO8NrPlQ3o+KaZWy5qvk/bY3F1Iya15KoU+rEfNVoCDLKZRHqFAyiypwRyW1SsMtoeTOqycvvzr93YH1f8jbZ9ljaJVVYRSdSMkUPq8Sj0wm8cbs/K//2eDnzVeBVSynUB6hQjl6XYIOd1LkfJXG6pNI9JLfGr46/d2XE/mBUeBzE+uHotz+xU1bJVHgExpjvkq/+Spwm28bKI9QoRyjM6nec/6jA3ew+XyVhltFWb1Ykrz86vXTL936WKEcyN8DViBCCrdK3o83/oREbikl7xXk31lcS/nv5u+YrwIres9Njc6kPAvKIFQoU883xz06uKP8O4sbcaPXutkkyUuvTn/n5bW/uNHmrrU/qt58lbZE7tx89EDzftsYW6Xguzk1O/8JZ+vBNwxUQKhQJosqUKSoVRq0T/LGJ65Uyq0dX2s/a6MIWf+jDT5t41Yp9AnRmJRVD7RurbLJe6pVwHIKlRAqlK/nm+Ou/4JiPPPhnb93/4Z7wIKVyfvG/nalRAq1SoGz9Xk/qrBVbp+bL2m+SlvBgzIV2aRSIlqFVpZMpS2nUAmhQvlGZ1Ku/4IiPfPhnX/xRNVmQdZafqKsVMrQ2h1fK/JapcBZlKrOV1lzHOVOrZJpi/7Xlmir8pMvfn1Mq9CyDp2dtJxCJYQKFTFTBYr38zt/6sgTFc2CjEHBRIkq5cffebktrwQSNW6V1b9VtlGW815gfqtEf4q2RKZ9pU+qnShl3NWmVWhBZqdQOaFCRcxUgZI8dP99wbZKXgHcFlVK9NN6tcrthZRCn3Dz/7a1Zdqz/0u016RPKrmrLWoVdxbTOsxOoXJChUpZVIGSBNgqmyTKzUp5ac2Or4paJe/G4Tu2SrSQkr8H7PZv2d623N6W6WivXZ/ceiV5HyrFlFmQtAzLKVSFUKFSFlWgVA/df9+/+ek7z4KMx+bfe//kh6/frJS1n1e4BopplUKfXeBzbqXI6oWU9Z/WlljuaMt0tmdq3Cc3//2bP6mimQVJK7CcQlUIFarAogqU6ud3/lTd7wHbfCElWku5/q2X1vwDq37SVvCfL9QqG3/OxhFy82qv5fx/8OYSSkf7ckd7DH1y68XkfagCZkHS3CynUC1ChSqYnU8fODXiSUJJ6nhnccHEWOfNi0M/fukHG50GiX5S5B6wDTZ3rf3R2lmQN28fXrvFa3mlTzJdHZkYE6XqleJsPU3vwKkRyylUhVChOo4OTI3NLHiYUJL4W6WYRLldKXnnSfJ/Vs1WWfm0mzNScr/Wlu2Tpc725e6OTOfKKZQY1W5Gp1ahWY3NLBwdMA+a6hAqVE1P35iHCaWKrVWKTJRVaykrAxLXLmvc/r1WKb5VCpytX/WjKFGipMn2SUf7UnfHcldn/H1S00TJ0So0Jd8MUEVChao5OjB1ZiTpeUKpajoLMlNKotyslP4frP5IW941XIm8n1V4Z3HuOEq2Tzrbl7o6lrtX+iTG/V1rXlT+n6U2tApN5sxI0nIKVSRUqCZ/jwLlqcUsyJL6JHK7UvLv+KpZq2SWM9nD8Z3Z9ZOlLZ3L9Vg/WfN68v8UtaRVaCa+DaC6hArVdPpq0qIKlKeK81XKSJSVShn8cf+qa3Nr3yrLbYl0Z3t6a+dSd+dyZ0emrn0Sz3avgsyCpDmcGUmevup7AKpJqFBl+44Ne6RQnqrMVynvO+2f/NXr63Z85buVEZu3SiF5rZJpa0uvrJ/UcX/XOnVJlJxoFqRWoaH5BoCqEypU2ehMqvec/alQpkrmq5S3kBKtpUz/37MF7vjK/+3yPyevQzaZrxIdkU93dyxuqf/6yWr1rZTce2e+Co2r99zU6EzKG0h1CRWq78CpEfMfoWyl3gNW6nH5dd68ODhz9gerNnfltcqqnxX+nPxWWbsHLNPWttTVkd7alb6rO93dsdwRVqKEUCmRN5xXoTElU8apURNCheqbnU8fOjvpwULZimyVSvok8uaFwZlv397xVUyHFNcq2fMq2fWTruwRlPS2ruXujuW2RKbuTbBWCC9n3UvQKjSiQ2cnTXikFoQKNdHTN2b+I1Rik1apcAklJ1spZ9ff8VV5q2RW5jMu3tWV3ta91N2Z6WhfN8MxBCEspOQ9vpu0Co1lbGbBZV/UiFChVg6cuurZQiXy56tUpU8iK5Xy/du/X+mtsm4WZKa9Lb2l48a27sVt3UtbuzId7bkZjnn/8joLJFE2eRVahQbiyz21I1SolROD064qhgrl5qts/n1tqVZ2fOUumLpjq2x4vL4tOn/S3bF4d/fi3d3L3Z25ESjBJkqwCynraBUawpmR5InBae8VNSJUqCE3FULlovkqj1dvFuRbFwZno0q5/f3y5q2Sd7w+kVhamX9y4+7uxXu2ZG8ZXnuFl0TZRPGv4g3zVQieL/TUlFChhkZnUof7JzxhqFAVW+WtW2sptxY+cr9SuFVWLeVk/8/yyuGThXu35M6frP7NM7fk/WvrLJxEKfWFvDE7/0/+bPDzX34h71eg/g73T7iSmJoSKtRWT9+4q4qhcg/df9+/rngW5NzQazNnbv/1fDGtkvu0THvbjZv7uzoKjmgMsE8iDbeQku8/9V+3rkJokql0T9+4t4WaEirU1uy8u9WhOn6hglmQ2bWUVwan+84mCn7LvHGrRCNQFrd137hnS3aKfCFhHkeJNEGlRMyCJDQHTo24kphaK/xVB6ro6MCUU/VQFZ/e+M7izb31ypWZb38vv0PWXCi26kfZK7y2di7cu2Vh+9bsKkpX4VWUwBdSmqZSnK0nNGdGkkcHprwt1JpQIQ7uLoRqKaNVspVyZsM7vla3Sqbtdp+kb10xXFCwx1EijXsoZRNahXD4sk48NvwiBFV0YXLOqXqolpJa5XalbLy/a7mzPX1X1417tyzsuCt9V/dGW7xu/kMB90nzLaSso1UIweH+iQuTc94KYrDZVyOoIqfqoYo+vTIL8o73gL31ypXZM9/faH9Xdn78tq7Ujq033rE1fVdXdn/XpiRK8Wr3QrQK9eUMPXESKsRkdj7ttnWool9YmQW5Sau8df7K7OmbO75Wt8pyx60+ifZ3tRf1hUCiFKm6270K0irU0b5jw87QExuhQnzMqofq2mS+SrZSzqycnl/5rjmTSCyvzI9P7bjr5v6ujc+frBP+QkogYkiUHLMgqQtz6ImZUCFWFlWgugrOV7lxfXqlUm5a6mxP3bdtYWV/1+bnT9YJPFGCqpT4RbMgtQpx8kWcmAkVYjU6k7K3Fapr3XyVG9enp1/8VnTF8OJd2S1eCzvuyrQXWHXZREMkSmuupaxjvgqx6ekbN4eemAkV4tbTN3bxmttCoJpy94C9df7Ktb88mZqfS22/a/6+bYv3bLnjEfl1JEqp6vta3pid//v/4btahVq7eG2up2/MYyZmQoU6cP86VN2nP7zzs12vX7t8KXXfthv3bl3u3nBE40bCT5QA93rV/eVkMhmtQgx84abJFuzpAAAaQ0lEQVQuhAp1cPpq0lgVqLp//vEn//jX31vq7xr46MacABdS6vtyVr9rWoWaOtw/cfqqu3CoA6FCffT0jY/NLHj4UF2/s2fX9/7oY+99ZHsxv2tD9IlEKSj/jdMq1MjYzILDpdSLUKE+smNVjv/Qw4eq+8B7H//fn/+7m7eKRClbCC9no/dOq1AL+47/0OAU6kWoUDenryZPuo4dauDhB+/fqFUaJVHCPI4ScqVEolZxZzHVcnJw2qYv6kioUE/7jg8nU/6eBqpvXas0ykGUiIWUgop8B9+Ynf+1/3Ll8196Ie9XoDTJVHrfcYNTqCehQj1lN4CZHgW18fCD9/fuf+qOfwcfmgBfbCNOlfyP/X9tXYUK7Ts2bNMX9SVUqLMTg9M2gEGNfOC9j//x3vc0ytMNcyGlgdZS1vnt/3HVeRXKdnJw+oSvztSbUKH+bACD2vncnl3//td+NvAHHGCihLOQUvaCmLP1lM2mLwIhVKg/G8CgpkJulWATpXEXUlbTKpTHpi8CIVQIwonB6d5zU94LqJEAWyXMRGmChZR1tAql6j03ZdMXgRAqhOLAqREjIKF2Prdn1/f/aHfBO4vjF2yiNFmlRLQKxRubWThwasQDIxBChVAYAQm19oEnHv8///KX69sq9nptrka3SGsVimS8I0ERKgTk9NXk4f4J7wjUzsMP3l+XVon6xF6vzdX0ImmzILmjw/0TxjsSFKFCWHr6xi9em/OmQO08/OD9/23/hzzgSItUSiSaBalVKOjitbmevvFCvwJ1I1QIy8oNYDaAQW194InHYztbH+xCSqtVSo75KhS075hNXwRHqBCcC5Nzz77gJB/UVgz3gAWeKM19KGUTzquQ79kXRi5M2s5AcIQKITp0duLMiG2yUFu1axWJUqSYEyVHq7DamZHkobMOiBIioUKg9vQOGVcPtVb1VpEoRYp/IWWdazPzf+9PtQrZIfR7eoc8B8IkVAiUcfUQj2q1SsiJEtRxlDoupKx6AYloXUWrYAg9IRMqhOvE4LTbiiEGFc6CDD9RVMraF3D7x1qlxR3unzCEnpAJFYJ24NSI24ohBuXNggw8UQJcSKlvpRR8v7RKy7p4bc4QegInVAjdvmM/dFgFYlD8LMiQpzfmOJGS9xryPnRL1ConzVdpJcmUYQA0AKFC6C5M+isfiEkxsyA3+X43HI3wGmN1x3ctOwvyq1e0Sus4cMp9xDQAoUIDODow1XtuyjsFMdhkFmT4qyhhnkgJeS1lnd8+bhZkS+g9N3V0wFdVGoBQoTE4rAKxyb8HTKKUp+6JUuoKmPMqrcDRFBqIUKExrNxW7LAKxCRqlYY4ixIJMFEarlIiWqW5RUdT3EdMoxAqNAyHVSBOn9uz60822AMWFAspBVVSmFqliTmaQmMRKjQSh1UgTp/bu+sH/6r8+Sq1FmaiNOhCyjpapSk5mkLDESo0mH3Hhh1Wgdh84InHv/n7Jc9XqbUAE6UJFlLW0SpN5uK1uX3Hhlv9KdBohAqNZ8/RIYdVIDYPP3h/OK0SbKI0x0LKOuarNI1kKr3n6FCrPwUakFCh8YzOpPb0+g8uxOfhB+//7//sDvNVYhDmqf4QEqV2823MV2kOe3qHRmdSrf4UaEBChYZ0+mqyp2/cewex+cATj9f3bL1K2UStX4X5Kg2tp2/89NVkqz8FGlNH2y/t89bRiM6MJD/4yD1PPLjNuwfx+MWfe3RH29w3X52O+XlLlM3F8EJ+kkp//ZU3nn7invvve2feLxK0k4PTn/n6694jGtEzH3nIigoNbN9xB+shVp/bG+udxU6kbC7OKTfO1jei7AH64w7Q08CECg3MFEiIXzytEmaitNpCyjpapbGY7UgTECo0tguT7luEuNW0VUJOlBZcSFlHqzSQfceGzXak0QkVGt6JwelnXzCxHmJVi1mQwSZKiy+krHNt9u2P/+l3tErgnn1h5MRg3MfJoOqECs3g0NkJE+shZlWcBRl4oqiUm//2lbWcaF1Fq4Ss99zUobMTrf4UaApChSZx4NSIg/UQs8pnQUqUItVxu1cks/aNilrFfJUAXbw2d+CUXQY0CaFCk5idT+8+csnBeohZJbMgg02UoPZ6hbDdq6A3Zuf3fvWyVglKMpX9UugAPU1DqNA8tArURRmzIENeSFEp61/ArR1fBX32+Ov2gAVCpdB8hApN5cKkJW+og+LvAQs/UWz3WvMa7vR2Oa8SjgOnRlzzRZMxmZ5mc2FyLpla+ofvNT4ZYnXHufV3+IY3ABZS1ryAot+xn6TS//OVN37liXvNra+jZ18YOfK9ay37x6cpPfORh4QKTeh74289dt/WDz5yjzcX4rRRqwSeKEH1SSAnUoqvlIhWqa/ec1N/+I3RVn4CNKVnPvKQrV80p33Hhs+MJL25ELN181UC3+ilUgoqtVIi9oDVy5mRpMHHNCuhQtPa0zvkwmKIXzRf5Wcf2R5+oqiUfOVVSkSrxO/itbk9vUOt9qemdQgVmtbsfHrP0SGXgEH8Hn7w/r4qzYKskQATJfDbvYpkvkqckqnslznXfNHEhArNbHQm5cJiqItK5qvUmoWUfJUnSo75KvGILiMenUm1wh+WliVUaHIXJuds3oW6+GDp81VqzXavgqpYKTnmq9TavmPDLiOm6QkVmt+Jwen9x7UK1MHvFj1fpdbCTJRmrRTnVWpt//HhE4MbXgUOTcP1xLSElb92avvYz4S7Yx6a1S/+3KPbC91ZHJvQ+iTSxImS487iGunpGz/cP9GUfzRYzRwVWsiZkaThKlAX9WoVibKJWldKRKtUXe+5qQOnRprsDwUFCRVay8nBaa0CdRF/qwRYKeG8ongqJaJVqqj33JRTl7QOAx9pOfuODRuuAnXxu2tnQdZI5pbQ3uRwFlLirJSI8ypVcfGau2FoOUKFlrP7yCWtAnXxwScer+l8lWD3erXUdq+C3pid3/0nWqV8F6/N7T5yqVFfPZRLqNByZufTWgXqpUazIAO81CvSygspa15A5marnPyW+SoliyrFYEdakFChFUWtMjaz4N2H+FV9FmSYiRLUoZT6yj2HN2bn93z1slYpydjMgkqhZQkVWtTsfHpP76Ch9VAX1ZoFGfJCirWUmy8g71/+GbMgi5ZMZb9UqRRallChdV2YzC6maxWoiwpnQUqUYtQ3UQpWivMqxUumsov/xs/TyoQKLU2rQB2V1yrBJspG35fXS5iVEtEqd6RSaHkJoQJaBeqppFYJPFGCWkip+3avOz4NrbIJlQIRoQJaBeqpmFYJOVE2XzqIWd0TpaSnoVUKUimQ09b2+9/2NCCRSPzjn/9bX3/mfZ4E1MWFv/p/R/on0ksFvskNOVGCEsRjKv1FPLzjrn/7m38n78Ota2/v0InB6VZ/CpBIfOu33i9U4LZPf+ShP/+NO/zNLgDUyP7jw0cHpjxdiELF1i+47ejA1P7jwx4IAPFTKbCOUIE1tAoA8VMpkE+owHpaBYA4qRQoSKhAAVoFgHioFNiIUIHCtAoAtaZSYBNCBTZ0dGBqb++Q+SoAVF0yld7bO6RSYBNCBTZzYnDaLEgAqiua6mheCmxOqMAdmFsPQBWZPQ9FEipwZ1oFgKpQKVA8oQJF0SoAVEilQEmEChQrapWxmQVPDIBSjc0sqBQoiVCBElyYnHvq0PmL13yZAaAEF69lv3yoFCiJUIHSzM5nF+61CgBFungtuyA/O2/zMJRGqEDJtAoARVIpUDahAuWYnU8/dfB87zmDugDYUO+5qacOnlcpUB6hAuXbd2xYqwBQUO+5qX3Hhgv9ClAUoQIV2XdsuKdv3DMEYLWevnGVAhUSKlCpnr6x/cd9NQLgpv3Hh3v6xjwNqJBQgSo4OjC1t3fIOEiAFpdMpff2Dh0dsCsYqkCoQHWcGJw2uh6glUWD508MTvv/AqgKoQJVkx0HefAV1xYDtKDsSMeDrxjpCFUkVKCaRmdSu49cOjOS9FQBWseZkeTuI5dGZ1Lec6gioQJVFo2DdG0xQIvoPTdlpCPUglCBmth3bPjZF0Y8W4Dm9uwLI64hhhoRKlArh85O7D8+7Hg9QFNKptL7jw8fOjvh7YUaESpQQ0cHplwFBtB8ogu+XEMMNSVUoLYuTM49/tzLrgIDaBoXr2X/w+6CL6g1oQI153g9QNNwdB5iI1QgDrPzacfrARpddHRepUA8hArE59DZib29Q46sADScZCq9t3fI0XmIk1CBWJ0YnN595JIjKwAN5OK1ud1HLp0YnPamQZyECsTtwmT2C95JX/AAGsHJlb9gcnQe4idUoA5m59N7eod6+sY9fICQ9fSN7+kdcigF6kKoQN309I19/CumrACEKJlKf/wrl3r6xrw7UC9CBerp9NXkUwdfcWQFICgXr809dfCV01eT3haoI6ECdTY6k3rq4HlTVgAC0Xtu6qmD50dnUt4QqC+hAkHYd2x4//Fh28AA6iiZSu8/Przv2LA3AUIgVCAURwem3FwMUC/RHcRHB6xvQyiECgQkurnYNjCAmPWem3IHMYRGqEBYZufTtoEBxCa33csdxBAaoQIhsg0MIAa2e0HIhAoE6sLk3FMHzx/un/AGAdTC4f6Jpw6et90LgiVUIGgHTo3s7R2yDQygipKp9N7eoQOnRjxUCJlQgdCdGJx+/LmXz4yYOwZQBWdGko8/9/KJwWkPEwInVKABzM6ndx+59OwL/vIPoCLPvjCy+8gl5+ahIQgVaBiHzk586NB5J+wBynDx2tyHDp0/dNbBP2gYQgUaSTRoxQl7gJIc7p8wJgUaTqe3DBrL7Hz6wKmRk4PT//U33rvznVu8ewCbGJtZ2Hf8h6evNvwxv7auzvaurrwPQ2Lp7flmfQhCBRrS6avJpw6dP/ir737mww95BwEK6j03deDUSHOcSOnc8Y7u+9+Z92FIzL16tVkfgq1f0KiiGfYuLwbIF11AbN48NDShAo0turz4pHs2AW45ufIfRhcQQ6MTKtDwZufTe3qHLK0ARAspe3qHLKRAExAq0CQsrQAtzkIKNBmH6aF5REsrH/uZ7S4EA1pK01ztBaxmRQWaTXQhmFkrQIs43D/x1KHzKgWaj1CBJhTNWvn4Vy4ZYw80sYvX5j7+lUtNcwExsI5QgaaVXVo5eL6nb9xbDDSfnr7xpw5aSIFmJlSgyfX0jb37uZfPjPhaDjSJMyPJdz/3ck/fmDcUmptQgeY3OpPafeSS+4uBRhfdPrz7yKXRmZQ3E5qeUIFWEd1f7JA90KAO90+4fRhailCBFhIdsv/QofN2ggEN5MxI8kOHzjs0D61GqEDLuTA5t/vIpf3Hh+0EAwKXTKX3Hx/efeTShUl3GELLESrQoo4OTNkJBoQs2ut1dGDKuwStSahA64p2grkTDAhNdK+XvV7Q4oQKtLrcnWBjMwut/iyAehubWXCvFxDp9ByA6E6wE4PTX/jEzt/76CPbt/ovAxC3ZCp96Oyk6ShAjhUV4LaevrHHn3u595wd4UCses9lT82pFGA1oQKsMTuf3nds2MEVIB7RcZR9x4YdRwHWscEDKCA6uPKxn9n+hU/s/OV3b8//BIAKnRlJ9vSNnb7q70SAwoQKsKHTV5Onr1769Ece+sIndu5855aNPg2gJGMzCz19Y+4dBjYnVIA7ODowdXRg6tMfeejgr77bOXugEslU9lZ0iQIUw/ccQFGODkydGJz+F7ve5VowoAzRpV6H+yecRQGK5LsNoFiz8+mevrHD/RNyBSieRAHK4/sMoDRyBSiSRAEq4TsMoBxRrvQOTH3hHzz6zIcf8gyBdXrPTR04NSJRgLKZowKUb3QmFQ1dMSMSyOk9N2U0ClC5tnv+fNJjBCr36D0d//Q92377fXe/o7vN44QW9OaNzH8emvuL194e/8mS97/q2rduad/aYNfEL6cWllOpvA9TZXOvXm3KR/qt33p/Z8e9d+d9HKBkE4nEv3t9+cjYTz7znu7Pvqf7HV1yBVrFm4uZL71248uv3UguZhJtWzvu9c5XX1tnZ1tnR4O95sXFvI9BCZxRAaopuZj54tDCl1+7IVegFaxJFICqEipA9eVy5el3df7h+7b89DbH4aDZ/Ojt5eeGFl6cSEsUoEaEClArycXM86OLz48ufvKxLrkCTSNKlOdH7eoBakuoADUX5cquB7KrK7/0QIPtsQZyXrq+9NzQQv91d3kBcRAqQEz6r6efPpN+ckfHZ9/T/Zs7uzx2aCB/Obb4pdduXJ51nRcQH6ECxOry7NJnXp5/bmjhkzu7nLaHwEVn5Z8fWxyfW/ZeATETKkAdjM8tf3Fo4YtDC598LJsrv7DdfjAIy5XkUjZRHEQB6keoAPWUO77yqce67AeDEPzl2OLXRhcdRAHqTqgA9dd/Pd1/PR3tB/vUY13uB4P4/ejt5a+NLtrlBYRDqAChyO0He/qRzs++x/1gEJOXri996bWFFyctoQBhESpAcF6cTL84mX707vbP/u3uTz7W5cA91MKbK5OOvvT6DUsoQJiEChCo8bnlP7iY+oOLqacf6fzUY93/6BH/vYLq+MZk+mujNyyhAIHzhR8IXW6BxQkWqIRTKEBjESpAY8idYImuCHv6kU5bwqAYby5mXswuobjIC2gwQgVoMNEVYdu72p5+V+evPNJlSxhs5BuT6f81ufjiRDq5mNngUwDC5Qs80JCSK+eAnx9dfPTu9pVDLF2mRkLkSnLpa6OLL06mbfECGppQARrb+Nzyl1+78eXXbkS3hD39rk6HWGhNP3p7+cWJtFu8gKYhVIAmceuWsMSTOzo+tbNLsdAioj752tji5dkl7znQTIQK0Gwuzy79weySYqG56ROg6QkVoGkpFpqPPgFah1ABml+uWJy8p0E5Hw+0IKECtJDVJ+93PdDhdmMCF90v3H99SZ8ALchXaKAVjc8tPz+3/PzoYiKRePqRzo8+0GljGIGINnedvZ5+cdJ8RqClCRWg1b04mf2OMLcx7KMPdFpmIX7fmMzGSf/1JYdPACK+GAPclNsYlltm2fVgh9Ms1M6V5FL/Xy9ZPAEoSKgAFBAtsyQSie1dbU+/ayVaHuiwN4zK/ejt5f7rK3EykU4uZjxRgI0IFYDNJBczz48uRqdZoiP4ooVS5eLEsXiA4gkVgGKtPoKfi5Ynd7TbHka+K8mly7PL4gSgbEIFoByro2V7V9uuBzqe3JHtll96QLS0rpdWlk0uzy71X1+yrQugQkIFoFLJxUx0puWLiYVEIjsIf9cDHe/f0WGxpelFyyaXVsrEbV0A1SVUAKrs8uya71l3rZxpibrFyZZG96O3l3Nl0n/dVV0ANSRUAGqrP3tK4fZ3tLtWjrW8f0fHo9va7RML30vXl8bfzpbJ5dllZQIQJ6ECEKuVbrn9L3wyWyxtT+7ILrk8enebrWL1dSW5ND6XWcmSpfG3M3ZzAdSRUAGop5V9YonV8/5y6bLz7narLjUVrZaMzS3LEoAACRWAsOSny/aubLc8enfbo9uye8ZWftr+jq42b1yR3lzMXJ5dTi5ml0rG314en8s2iVu5AAInVABCl1zMZE9HXF//Mp+8FS3bu9qi5Zft3YlW3jx2JbmUvJGIFkmSt+LEOglAgxIqAI0q+ha8Py9goiP7K0sx2ZhJJBJRxqy0TQMvxfxoZTEkO8RmJUWiJ5DMTrJJOOYO0HyECkATyn3jvnoL2WrRdrLoA9GmstwvfvSBNV8aarRKE61+rHZ2VWyM32qSWzVimxZAyxEqAK3o5nayyNo1mWhsZamifWjR72y3FQCVEyoAVIE4AaC6zEgGAACCI1QAAIDgCBUAACA4QgUAAAiOUAEAAIIjVAAAgOAIFQAAIDhCBQAACI5QAQAAgiNUAACA4AgVAAAgOEIFAAAIjlABAACCI1QAAIDgCBUAACA4QgUAAAiOUAEAAIIjVAAAgOAIFQAAIDhCBQAACI5QAQAAgiNUAACA4AgVAAAgOEIFAAAIjlABAACCI1QAAIDgCBUAACA4QgUAAAiOUAEAAIIjVAAAgOAIFQAAIDhCBQAACI5QAQAAgiNUAACA4AgVAAAgOJ3eEgCA0GUyieXlxnqXlhcWl95O5X0YiiVUAABCl1layiwtNdbbtPjj2YWJN/I+DMWy9QsAAAiOUAEAAIIjVAAAgOAIFQAAIDhCBQAACI5QAQAAgiNUAACA4AgVAAAgOEIFAAAIjlABAACCI1QAAIDgCBUAACA4QgUAAAiOUAEAAIIjVAAAgOAIFQAAIDhCBQAACI5QAQAAgiNUAACA4AgVAAAgOEIFAAAIjlABAACCI1QAAIDgCBUAACA4QgUAAAiOUAEAAIIjVAAAgOAIFQAAIDhCBQAACI5QAQAAgiNUAACA4AgVAAAgOEIFAAAIjlABAACCI1QAAIDgCBUAACA4QgUAAAiOUAEAAIIjVAAAgOAIFQAAIDhCBQAACI5QAQAAgiNUAACA4AgVAAAgOEIFAAAIjlABAACCI1QAAIDgCBUAACA4QgUAAAiOUAEAAIIjVAAAgOAIFQAAIDhCBQAACI5QAQAAgiNUAACA4AgVAAAgOEIFAAAIjlABAACCI1QAAIDgCBUAACA4QgUAAAiOUAEAAIIjVAAAgOAIFQAAIDhCBQAACI5QAQAAgiNUAACA4AgVAAAgOEIFAAAIjlABAACCI1QAAIDgCBUAACA4QgUAAAiOUAEAAIIjVAAAgOAIFQAAIDhCBQAACI5QAQAAgiNUAACA4AgVAAAgOEIFAAAIjlABAACCI1QAAIDgCBUAACA4QgUAAAiOUAEAAIIjVAAAgOAIFQAAIDhCBQAACI5QAQAAgiNUAACA4AgVAAAgOEIFAAAIjlABAACCI1QAAIDgCBUAACA4QgUAAAiOUAEAAIIjVAAAgOAIFQAAIDhCBQAACI5QAQAAgiNUAACA4AgVAAAgOEIFAAAIjlABAACCI1QAAIDgCBUAACA4QgUAAAiOUAEAAIIjVAAAgLAkEon/DyU2Ubpgi8wLAAAAAElFTkSuQmCC;aspect=fixed;rounded=1;labelBackgroundColor=none;fillColor=#09555B;strokeColor=#BAC8D3;fontColor=#EEEEEE;" vertex="1" parent="1">
          <mxGeometry x="80" y="380" width="160" height="160" as="geometry" />
        </mxCell>
        <mxCell id="BrXt5fqMSFw7gzk6Yu6o-18" value="" style="strokeWidth=1;shadow=0;dashed=0;align=center;html=1;shape=mxgraph.mockup.forms.rrect;rSize=0;strokeColor=#BAC8D3;fillColor=#09555B;rounded=1;labelBackgroundColor=none;fontColor=#EEEEEE;" vertex="1" parent="1">
          <mxGeometry x="340" y="340" width="200" height="300" as="geometry" />
        </mxCell>
        <mxCell id="BrXt5fqMSFw7gzk6Yu6o-19" value="Sign In" style="strokeWidth=1;shadow=0;dashed=0;align=center;html=1;shape=mxgraph.mockup.forms.anchor;fontSize=12;fontColor=#EEEEEE;align=left;resizeWidth=1;spacingLeft=0;rounded=1;labelBackgroundColor=none;fillColor=#09555B;strokeColor=#BAC8D3;" vertex="1" parent="BrXt5fqMSFw7gzk6Yu6o-18">
          <mxGeometry width="100" height="20" relative="1" as="geometry">
            <mxPoint x="10" y="10" as="offset" />
          </mxGeometry>
        </mxCell>
        <mxCell id="BrXt5fqMSFw7gzk6Yu6o-20" value="" style="shape=line;strokeColor=#BAC8D3;strokeWidth=2;html=1;resizeWidth=1;rounded=1;labelBackgroundColor=none;fillColor=#09555B;fontColor=#EEEEEE;" vertex="1" parent="BrXt5fqMSFw7gzk6Yu6o-18">
          <mxGeometry width="180" height="10" relative="1" as="geometry">
            <mxPoint x="10" y="30" as="offset" />
          </mxGeometry>
        </mxCell>
        <mxCell id="BrXt5fqMSFw7gzk6Yu6o-21" value="User Name:" style="strokeWidth=1;shadow=0;dashed=0;align=center;html=1;shape=mxgraph.mockup.forms.anchor;fontSize=12;fontColor=#EEEEEE;align=left;resizeWidth=1;spacingLeft=0;rounded=1;labelBackgroundColor=none;fillColor=#09555B;strokeColor=#BAC8D3;" vertex="1" parent="BrXt5fqMSFw7gzk6Yu6o-18">
          <mxGeometry width="100" height="20" relative="1" as="geometry">
            <mxPoint x="10" y="40" as="offset" />
          </mxGeometry>
        </mxCell>
        <mxCell id="BrXt5fqMSFw7gzk6Yu6o-22" value="johndoe" style="strokeWidth=1;shadow=0;dashed=0;align=center;html=1;shape=mxgraph.mockup.forms.rrect;rSize=0;strokeColor=#BAC8D3;fontColor=#EEEEEE;align=left;spacingLeft=5;resizeWidth=1;rounded=1;labelBackgroundColor=none;fillColor=#09555B;" vertex="1" parent="BrXt5fqMSFw7gzk6Yu6o-18">
          <mxGeometry width="150" height="25" relative="1" as="geometry">
            <mxPoint x="10" y="60" as="offset" />
          </mxGeometry>
        </mxCell>
        <mxCell id="BrXt5fqMSFw7gzk6Yu6o-23" value="Password:" style="strokeWidth=1;shadow=0;dashed=0;align=center;html=1;shape=mxgraph.mockup.forms.anchor;fontSize=12;fontColor=#EEEEEE;align=left;resizeWidth=1;spacingLeft=0;rounded=1;labelBackgroundColor=none;fillColor=#09555B;strokeColor=#BAC8D3;" vertex="1" parent="BrXt5fqMSFw7gzk6Yu6o-18">
          <mxGeometry width="100" height="20" relative="1" as="geometry">
            <mxPoint x="10" y="95" as="offset" />
          </mxGeometry>
        </mxCell>
        <mxCell id="BrXt5fqMSFw7gzk6Yu6o-24" value="********" style="strokeWidth=1;shadow=0;dashed=0;align=center;html=1;shape=mxgraph.mockup.forms.rrect;rSize=0;strokeColor=#BAC8D3;fontColor=#EEEEEE;align=left;spacingLeft=5;resizeWidth=1;rounded=1;labelBackgroundColor=none;fillColor=#09555B;" vertex="1" parent="BrXt5fqMSFw7gzk6Yu6o-18">
          <mxGeometry width="150" height="25" relative="1" as="geometry">
            <mxPoint x="10" y="115" as="offset" />
          </mxGeometry>
        </mxCell>
        <mxCell id="BrXt5fqMSFw7gzk6Yu6o-25" value="SIGN IN" style="strokeWidth=1;shadow=0;dashed=0;align=center;html=1;shape=mxgraph.mockup.forms.rrect;rSize=5;strokeColor=#BAC8D3;fontColor=#EEEEEE;fillColor=#09555B;fontSize=16;fontStyle=1;rounded=1;labelBackgroundColor=none;" vertex="1" parent="BrXt5fqMSFw7gzk6Yu6o-18">
          <mxGeometry y="1" width="80" height="30" relative="1" as="geometry">
            <mxPoint x="20" y="-150" as="offset" />
          </mxGeometry>
        </mxCell>
        <mxCell id="BrXt5fqMSFw7gzk6Yu6o-26" value="Forgot Password?" style="strokeWidth=1;shadow=0;dashed=0;align=center;html=1;shape=mxgraph.mockup.forms.anchor;fontSize=12;fontColor=#EEEEEE;align=left;spacingLeft=0;fontStyle=4;resizeWidth=1;rounded=1;labelBackgroundColor=none;fillColor=#09555B;strokeColor=#BAC8D3;" vertex="1" parent="BrXt5fqMSFw7gzk6Yu6o-18">
          <mxGeometry y="1" width="150" height="20" relative="1" as="geometry">
            <mxPoint x="10" y="-110" as="offset" />
          </mxGeometry>
        </mxCell>
        <mxCell id="BrXt5fqMSFw7gzk6Yu6o-27" value="" style="shape=line;strokeColor=#BAC8D3;strokeWidth=2;html=1;resizeWidth=1;rounded=1;labelBackgroundColor=none;fillColor=#09555B;fontColor=#EEEEEE;" vertex="1" parent="BrXt5fqMSFw7gzk6Yu6o-18">
          <mxGeometry y="1" width="180" height="10" relative="1" as="geometry">
            <mxPoint x="10" y="-90" as="offset" />
          </mxGeometry>
        </mxCell>
        <mxCell id="BrXt5fqMSFw7gzk6Yu6o-28" value="New User" style="strokeWidth=1;shadow=0;dashed=0;align=center;html=1;shape=mxgraph.mockup.forms.anchor;fontSize=12;fontColor=#EEEEEE;align=left;spacingLeft=0;resizeWidth=1;rounded=1;labelBackgroundColor=none;fillColor=#09555B;strokeColor=#BAC8D3;" vertex="1" parent="BrXt5fqMSFw7gzk6Yu6o-18">
          <mxGeometry y="1" width="150" height="20" relative="1" as="geometry">
            <mxPoint x="10" y="-70" as="offset" />
          </mxGeometry>
        </mxCell>
        <mxCell id="BrXt5fqMSFw7gzk6Yu6o-29" value="SIGN UP" style="strokeWidth=1;shadow=0;dashed=0;align=center;html=1;shape=mxgraph.mockup.forms.rrect;rSize=5;strokeColor=#BAC8D3;fontColor=#EEEEEE;fillColor=#09555B;fontSize=16;fontStyle=1;rounded=1;labelBackgroundColor=none;" vertex="1" parent="BrXt5fqMSFw7gzk6Yu6o-18">
          <mxGeometry y="1" width="80" height="30" relative="1" as="geometry">
            <mxPoint x="20" y="-50" as="offset" />
          </mxGeometry>
        </mxCell>
        <mxCell id="BrXt5fqMSFw7gzk6Yu6o-38" value="" style="shape=ext;double=1;rounded=1;whiteSpace=wrap;html=1;labelBackgroundColor=none;fillColor=#09555B;strokeColor=#BAC8D3;fontColor=#EEEEEE;" vertex="1" parent="1">
          <mxGeometry x="630" y="90" width="220" height="400" as="geometry" />
        </mxCell>
        <mxCell id="BrXt5fqMSFw7gzk6Yu6o-39" value="" style="shape=ext;double=1;rounded=1;whiteSpace=wrap;html=1;labelBackgroundColor=none;fillColor=#09555B;strokeColor=#BAC8D3;fontColor=#EEEEEE;" vertex="1" parent="1">
          <mxGeometry x="630" y="530" width="220" height="400" as="geometry" />
        </mxCell>
        <mxCell id="BrXt5fqMSFw7gzk6Yu6o-207" style="edgeStyle=orthogonalEdgeStyle;rounded=1;orthogonalLoop=1;jettySize=auto;html=1;entryX=-0.021;entryY=0.445;entryDx=0;entryDy=0;entryPerimeter=0;labelBackgroundColor=none;strokeColor=#0B4D6A;fontColor=default;" edge="1" parent="1" source="BrXt5fqMSFw7gzk6Yu6o-4" target="BrXt5fqMSFw7gzk6Yu6o-38">
          <mxGeometry relative="1" as="geometry" />
        </mxCell>
        <mxCell id="BrXt5fqMSFw7gzk6Yu6o-209" value="new User Screen" style="text;html=1;strokeColor=none;fillColor=none;align=center;verticalAlign=middle;whiteSpace=wrap;rounded=1;labelBackgroundColor=none;fontColor=#000000;" vertex="1" parent="1">
          <mxGeometry x="645" y="53" width="190" height="30" as="geometry" />
        </mxCell>
        <mxCell id="BrXt5fqMSFw7gzk6Yu6o-210" value="" style="strokeWidth=1;shadow=0;dashed=0;align=center;html=1;shape=mxgraph.mockup.forms.rrect;rSize=0;strokeColor=#BAC8D3;fillColor=#09555B;rounded=1;labelBackgroundColor=none;fontColor=#EEEEEE;" vertex="1" parent="1">
          <mxGeometry x="640" y="160" width="200" height="290" as="geometry" />
        </mxCell>
        <mxCell id="BrXt5fqMSFw7gzk6Yu6o-211" value="Sign In" style="strokeWidth=1;shadow=0;dashed=0;align=center;html=1;shape=mxgraph.mockup.forms.anchor;fontSize=12;fontColor=#EEEEEE;align=left;resizeWidth=1;spacingLeft=0;rounded=1;labelBackgroundColor=none;fillColor=#09555B;strokeColor=#BAC8D3;" vertex="1" parent="BrXt5fqMSFw7gzk6Yu6o-210">
          <mxGeometry width="100" height="20" relative="1" as="geometry">
            <mxPoint x="10" y="10" as="offset" />
          </mxGeometry>
        </mxCell>
        <mxCell id="BrXt5fqMSFw7gzk6Yu6o-212" value="" style="shape=line;strokeColor=#BAC8D3;strokeWidth=2;html=1;resizeWidth=1;rounded=1;labelBackgroundColor=none;fillColor=#09555B;fontColor=#EEEEEE;" vertex="1" parent="BrXt5fqMSFw7gzk6Yu6o-210">
          <mxGeometry width="180" height="10" relative="1" as="geometry">
            <mxPoint x="10" y="30" as="offset" />
          </mxGeometry>
        </mxCell>
        <mxCell id="BrXt5fqMSFw7gzk6Yu6o-213" value="User Name:" style="strokeWidth=1;shadow=0;dashed=0;align=center;html=1;shape=mxgraph.mockup.forms.anchor;fontSize=12;fontColor=#EEEEEE;align=left;resizeWidth=1;spacingLeft=0;rounded=1;labelBackgroundColor=none;fillColor=#09555B;strokeColor=#BAC8D3;" vertex="1" parent="BrXt5fqMSFw7gzk6Yu6o-210">
          <mxGeometry width="100" height="20" relative="1" as="geometry">
            <mxPoint x="10" y="40" as="offset" />
          </mxGeometry>
        </mxCell>
        <mxCell id="BrXt5fqMSFw7gzk6Yu6o-214" value="johndoe" style="strokeWidth=1;shadow=0;dashed=0;align=center;html=1;shape=mxgraph.mockup.forms.rrect;rSize=0;strokeColor=#BAC8D3;fontColor=#EEEEEE;align=left;spacingLeft=5;resizeWidth=1;rounded=1;labelBackgroundColor=none;fillColor=#09555B;" vertex="1" parent="BrXt5fqMSFw7gzk6Yu6o-210">
          <mxGeometry width="150" height="25" relative="1" as="geometry">
            <mxPoint x="10" y="60" as="offset" />
          </mxGeometry>
        </mxCell>
        <mxCell id="BrXt5fqMSFw7gzk6Yu6o-215" value="Password:" style="strokeWidth=1;shadow=0;dashed=0;align=center;html=1;shape=mxgraph.mockup.forms.anchor;fontSize=12;fontColor=#EEEEEE;align=left;resizeWidth=1;spacingLeft=0;rounded=1;labelBackgroundColor=none;fillColor=#09555B;strokeColor=#BAC8D3;" vertex="1" parent="BrXt5fqMSFw7gzk6Yu6o-210">
          <mxGeometry width="100" height="20" relative="1" as="geometry">
            <mxPoint x="10" y="95" as="offset" />
          </mxGeometry>
        </mxCell>
        <mxCell id="BrXt5fqMSFw7gzk6Yu6o-216" value="********" style="strokeWidth=1;shadow=0;dashed=0;align=center;html=1;shape=mxgraph.mockup.forms.rrect;rSize=0;strokeColor=#BAC8D3;fontColor=#EEEEEE;align=left;spacingLeft=5;resizeWidth=1;rounded=1;labelBackgroundColor=none;fillColor=#09555B;" vertex="1" parent="BrXt5fqMSFw7gzk6Yu6o-210">
          <mxGeometry width="150" height="25" relative="1" as="geometry">
            <mxPoint x="10" y="115" as="offset" />
          </mxGeometry>
        </mxCell>
        <mxCell id="BrXt5fqMSFw7gzk6Yu6o-219" value="" style="shape=line;strokeColor=#BAC8D3;strokeWidth=2;html=1;resizeWidth=1;rounded=1;labelBackgroundColor=none;fillColor=#09555B;fontColor=#EEEEEE;" vertex="1" parent="BrXt5fqMSFw7gzk6Yu6o-210">
          <mxGeometry y="1" width="180" height="10" relative="1" as="geometry">
            <mxPoint x="10" y="-70" as="offset" />
          </mxGeometry>
        </mxCell>
        <mxCell id="BrXt5fqMSFw7gzk6Yu6o-221" value="Register" style="strokeWidth=1;shadow=0;dashed=0;align=center;html=1;shape=mxgraph.mockup.forms.rrect;rSize=5;strokeColor=#BAC8D3;fontColor=#EEEEEE;fillColor=#09555B;fontSize=16;fontStyle=1;rounded=1;labelBackgroundColor=none;" vertex="1" parent="BrXt5fqMSFw7gzk6Yu6o-210">
          <mxGeometry y="1" width="160" height="30" relative="1" as="geometry">
            <mxPoint x="20" y="-50" as="offset" />
          </mxGeometry>
        </mxCell>
        <mxCell id="BrXt5fqMSFw7gzk6Yu6o-222" value="Confirm Password:" style="strokeWidth=1;shadow=0;dashed=0;align=center;html=1;shape=mxgraph.mockup.forms.anchor;fontSize=12;fontColor=#EEEEEE;align=left;resizeWidth=1;spacingLeft=0;rounded=1;labelBackgroundColor=none;fillColor=#09555B;strokeColor=#BAC8D3;" vertex="1" parent="BrXt5fqMSFw7gzk6Yu6o-210">
          <mxGeometry width="100" height="20" relative="1" as="geometry">
            <mxPoint x="10" y="154" as="offset" />
          </mxGeometry>
        </mxCell>
        <mxCell id="BrXt5fqMSFw7gzk6Yu6o-223" value="********" style="strokeWidth=1;shadow=0;dashed=0;align=center;html=1;shape=mxgraph.mockup.forms.rrect;rSize=0;strokeColor=#BAC8D3;fontColor=#EEEEEE;align=left;spacingLeft=5;resizeWidth=1;rounded=1;labelBackgroundColor=none;fillColor=#09555B;" vertex="1" parent="BrXt5fqMSFw7gzk6Yu6o-210">
          <mxGeometry width="150" height="25" relative="1" as="geometry">
            <mxPoint x="10" y="174" as="offset" />
          </mxGeometry>
        </mxCell>
        <mxCell id="BrXt5fqMSFw7gzk6Yu6o-224" value="Main&amp;nbsp;Screen" style="text;html=1;strokeColor=none;fillColor=none;align=center;verticalAlign=middle;whiteSpace=wrap;rounded=1;labelBackgroundColor=none;fontColor=#000000;" vertex="1" parent="1">
          <mxGeometry x="640" y="500" width="190" height="30" as="geometry" />
        </mxCell>
        <mxCell id="BrXt5fqMSFw7gzk6Yu6o-227" style="edgeStyle=orthogonalEdgeStyle;rounded=0;orthogonalLoop=1;jettySize=auto;html=1;strokeColor=#0B4D6A;" edge="1" parent="1" source="BrXt5fqMSFw7gzk6Yu6o-225" target="BrXt5fqMSFw7gzk6Yu6o-39">
          <mxGeometry relative="1" as="geometry" />
        </mxCell>
        <mxCell id="BrXt5fqMSFw7gzk6Yu6o-225" value="" style="html=1;verticalLabelPosition=bottom;align=center;labelBackgroundColor=#ffffff;verticalAlign=top;strokeWidth=2;strokeColor=#FFFFFF;shadow=0;dashed=0;shape=mxgraph.ios7.icons.home;fontColor=#EEEEEE;fillColor=#09555B;labelBorderColor=none;" vertex="1" parent="1">
          <mxGeometry x="660" y="890" width="20" height="20" as="geometry" />
        </mxCell>
        <mxCell id="BrXt5fqMSFw7gzk6Yu6o-228" value="" style="html=1;verticalLabelPosition=bottom;align=center;labelBackgroundColor=#ffffff;verticalAlign=top;strokeWidth=2;strokeColor=#FFFFFF;shadow=0;dashed=0;shape=mxgraph.ios7.icons.user;fontColor=#EEEEEE;fillColor=#09555B;" vertex="1" parent="1">
          <mxGeometry x="811" y="890" width="20" height="20" as="geometry" />
        </mxCell>
        <mxCell id="BrXt5fqMSFw7gzk6Yu6o-229" value="" style="html=1;verticalLabelPosition=bottom;align=center;labelBackgroundColor=#ffffff;verticalAlign=top;strokeWidth=2;strokeColor=#FFFFFF;shadow=0;dashed=0;shape=mxgraph.ios7.icons.pie_chart;fontColor=#EEEEEE;fillColor=#09555B;" vertex="1" parent="1">
          <mxGeometry x="736" y="891" width="20" height="20" as="geometry" />
        </mxCell>
      </root>
    </mxGraphModel>
  </diagram>
</mxfile>
